<?xml version="1.0" standalone="no"?>
<!DOCTYPE svg PUBLIC "-//W3C//DTD SVG 20010904//EN"
 "http://www.w3.org/TR/2001/REC-SVG-20010904/DTD/svg10.dtd">
<svg version="1.0" xmlns="http://www.w3.org/2000/svg"
 width="700.000000pt" height="700.000000pt" viewBox="0 0 700.000000 700.000000"
 preserveAspectRatio="xMidYMid meet">
<metadata>
Created by potrace 1.14, written by Peter Selinger 2001-2017
</metadata>
<g transform="translate(0.000000,700.000000) scale(0.100000,-0.100000)"
fill="#000000" stroke="none">
<path d="M3280 6994 c-19 -2 -84 -9 -145 -14 -578 -56 -1180 -283 -1660 -625
-237 -169 -531 -446 -709 -670 -416 -521 -673 -1147 -748 -1820 -17 -155 -17
-575 0 -730 52 -469 198 -931 418 -1327 290 -523 731 -983 1239 -1294 439
-269 920 -432 1460 -496 145 -17 576 -17 730 0 822 91 1556 447 2131 1034 203
206 348 390 487 618 274 449 433 916 499 1465 16 136 16 592 0 730 -86 725
-352 1347 -803 1885 -122 145 -351 370 -494 484 -510 407 -1117 661 -1775 742
-117 15 -553 27 -630 18z m1325 -1539 c341 -72 606 -276 756 -580 78 -159 100
-251 106 -435 6 -177 -11 -283 -66 -426 -62 -161 -121 -243 -311 -438 -183
-187 -226 -218 -316 -232 -113 -17 -236 48 -291 155 -28 54 -33 73 -33 134 0
112 23 150 198 329 94 97 159 172 174 203 75 147 77 300 7 450 -31 68 -149
185 -219 217 -163 75 -341 62 -490 -35 -25 -16 -201 -185 -391 -376 -304 -305
-349 -354 -381 -416 -46 -90 -62 -163 -56 -261 5 -81 8 -89 114 -339 49 -115
52 -178 11 -247 -30 -52 -103 -120 -162 -151 -52 -27 -146 -29 -194 -3 -143
76 -295 334 -340 576 -51 274 11 564 169 801 51 76 773 807 870 880 119 90
267 157 420 189 108 24 326 26 425 5z m-651 -1469 c116 -68 240 -261 300 -469
87 -299 33 -633 -145 -899 -51 -77 -776 -808 -869 -878 -133 -99 -285 -165
-446 -196 -132 -24 -357 -15 -478 19 -298 86 -542 286 -675 553 -80 161 -112
296 -112 481 0 188 34 332 117 493 63 123 122 195 301 371 142 141 164 158
212 173 149 44 291 -16 357 -151 22 -44 28 -71 28 -122 1 -106 -26 -150 -202
-332 -157 -163 -190 -211 -217 -316 -66 -254 99 -527 356 -588 82 -19 159 -19
232 0 124 32 141 46 535 439 330 328 377 379 407 438 43 87 59 164 52 258 -5
78 -22 130 -107 320 -68 152 -61 225 32 326 101 110 221 140 322 80z"/>
</g>
</svg>
