<svg width="751" height="752" viewBox="0 0 751 752" fill="none" xmlns="http://www.w3.org/2000/svg">
<path d="M618.111 185.885C619.64 185.561 621.039 184.79 622.129 183.669C622.001 184.291 621.838 184.905 621.641 185.509C621.34 186.523 622.467 186.823 622.842 186.185C624.17 184.214 624.694 181.809 624.307 179.464C624.287 179.242 624.205 179.031 624.069 178.854C623.933 178.678 623.749 178.545 623.54 178.47C623.33 178.395 623.104 178.381 622.887 178.431C622.67 178.481 622.472 178.591 622.316 178.75C620.739 180.665 620.439 183.369 617.773 184.195C617.562 184.252 617.38 184.388 617.265 184.574C617.15 184.76 617.11 184.983 617.153 185.197C617.196 185.412 617.319 185.602 617.497 185.73C617.674 185.857 617.894 185.913 618.111 185.885ZM610.714 173.23C610.923 173.365 611.165 173.441 611.414 173.45C611.663 173.459 611.91 173.401 612.128 173.282C612.347 173.163 612.53 172.987 612.658 172.773C612.785 172.559 612.853 172.315 612.854 172.066C612.854 171.766 612.854 171.428 611.051 168.724C610.676 168.161 610.225 167.11 609.249 167.635C608.273 168.161 608.949 169.137 609.474 170.452C610.526 173.23 610.526 173.23 610.714 173.23ZM610.113 166.359C611.953 166.359 613.229 166.359 613.455 167.898C613.485 168.127 613.604 168.335 613.787 168.476C613.97 168.617 614.202 168.679 614.431 168.649C614.66 168.619 614.868 168.5 615.009 168.317C615.149 168.133 615.212 167.902 615.182 167.673C614.885 166.456 614.169 165.383 613.159 164.642C612.15 163.9 610.912 163.538 609.662 163.617C609.365 163.741 609.119 163.961 608.962 164.242C608.806 164.523 608.75 164.849 608.802 165.166C608.854 165.484 609.012 165.774 609.25 165.991C609.488 166.207 609.792 166.337 610.113 166.359ZM150.839 280.811C140.306 285.906 128.715 288.429 117.018 288.175C105.32 287.92 93.85 284.895 83.549 279.347C83.3598 279.232 83.1328 279.197 82.918 279.25C82.7033 279.303 82.5183 279.439 82.4037 279.628C82.2892 279.817 82.2545 280.044 82.3073 280.259C82.3602 280.474 82.4961 280.659 82.6854 280.773C103.263 294.179 133.491 294.93 151.402 281.787C151.531 281.713 151.626 281.59 151.665 281.445C151.703 281.301 151.683 281.147 151.608 281.017C151.534 280.888 151.411 280.794 151.266 280.755C151.122 280.716 150.968 280.736 150.839 280.811ZM148.06 169.475C150.2 170.339 153.73 169.475 152.791 167.485C152.164 165.967 151.723 164.378 151.477 162.754C151.477 162.525 151.386 162.305 151.224 162.143C151.062 161.981 150.842 161.89 150.613 161.89C150.384 161.89 150.165 161.981 150.003 162.143C149.841 162.305 149.75 162.525 149.75 162.754C149.727 164.343 149.878 165.929 150.2 167.485C149.688 167.776 149.095 167.895 148.511 167.823C148.402 167.793 148.289 167.786 148.177 167.8C148.066 167.814 147.958 167.85 147.86 167.906C147.763 167.961 147.677 168.036 147.608 168.125C147.539 168.214 147.489 168.315 147.459 168.424C147.43 168.532 147.422 168.646 147.436 168.757C147.45 168.869 147.486 168.976 147.542 169.074C147.598 169.172 147.672 169.257 147.761 169.326C147.85 169.395 147.951 169.446 148.06 169.475ZM143.742 161.252C144.323 159.901 144.8 158.508 145.169 157.084C145.202 156.953 145.209 156.817 145.189 156.683C145.17 156.55 145.124 156.422 145.054 156.306C144.984 156.191 144.891 156.091 144.782 156.011C144.673 155.932 144.549 155.875 144.418 155.845C143.291 155.507 143.103 156.708 142.54 158.173C142.217 158.901 141.953 159.655 141.752 160.426C141.75 160.657 141.818 160.883 141.946 161.076C142.074 161.268 142.256 161.418 142.469 161.507C142.683 161.595 142.918 161.618 143.144 161.573C143.371 161.528 143.579 161.416 143.742 161.252ZM156.246 164.781C156.46 164.875 156.697 164.901 156.926 164.853C157.155 164.806 157.363 164.689 157.523 164.519C158.098 163.166 158.575 161.773 158.949 160.351C158.989 160.222 159.002 160.087 158.987 159.954C158.972 159.821 158.93 159.692 158.863 159.576C158.796 159.459 158.705 159.358 158.598 159.278C158.49 159.198 158.367 159.142 158.236 159.111C157.072 158.773 156.847 160.125 156.358 161.402C155.87 162.679 154.932 164.256 156.246 164.781ZM138.222 172.479C139.57 173.154 141.114 173.327 142.578 172.967C143.516 172.554 142.878 171.127 141.977 171.428C140.985 171.36 140.033 171.008 139.236 170.414C138.728 170.081 138.29 169.65 137.949 169.148C137.607 168.645 137.368 168.08 137.246 167.485C136.983 165.908 134.504 166.509 134.88 168.086C135.062 169.026 135.458 169.911 136.038 170.673C136.618 171.435 137.365 172.053 138.222 172.479ZM405.165 583.539C405.165 582.543 404.769 581.588 404.065 580.884C403.361 580.18 402.406 579.784 401.41 579.784C400.414 579.784 399.459 580.18 398.755 580.884C398.05 581.588 397.655 582.543 397.655 583.539C397.655 584.535 398.05 585.49 398.755 586.194C399.459 586.898 400.414 587.294 401.41 587.294C402.406 587.294 403.361 586.898 404.065 586.194C404.769 585.49 405.165 584.535 405.165 583.539ZM405.09 620.526C405.683 620.582 406.281 620.513 406.847 620.324C407.412 620.135 407.931 619.83 408.372 619.429C408.813 619.028 409.165 618.539 409.406 617.994C409.646 617.449 409.771 616.86 409.771 616.264C409.771 615.668 409.646 615.079 409.406 614.534C409.165 613.988 408.813 613.5 408.372 613.098C407.931 612.697 407.412 612.393 406.847 612.204C406.281 612.015 405.683 611.946 405.09 612.002C404.496 611.946 403.898 612.015 403.333 612.204C402.768 612.393 402.248 612.697 401.807 613.098C401.367 613.5 401.015 613.988 400.774 614.534C400.533 615.079 400.408 615.668 400.408 616.264C400.408 616.86 400.533 617.449 400.774 617.994C401.015 618.539 401.367 619.028 401.807 619.429C402.248 619.83 402.768 620.135 403.333 620.324C403.898 620.513 404.496 620.582 405.09 620.526ZM406.179 650.941C405.156 651.039 404.206 651.515 403.515 652.275C402.824 653.035 402.441 654.026 402.441 655.053C402.441 656.08 402.824 657.071 403.515 657.831C404.206 658.591 405.156 659.067 406.179 659.165C407.201 659.067 408.151 658.591 408.842 657.831C409.533 657.071 409.916 656.08 409.916 655.053C409.916 654.026 409.533 653.035 408.842 652.275C408.151 651.515 407.201 651.039 406.179 650.941ZM383.386 487.862C385.236 497.665 386.49 507.571 387.141 517.526C387.141 517.875 387.279 518.209 387.526 518.455C387.772 518.702 388.106 518.84 388.455 518.84C388.804 518.84 389.138 518.702 389.384 518.455C389.631 518.209 389.769 517.875 389.769 517.526C389.033 507.406 387.488 497.36 385.151 487.486C385.055 487.306 384.903 487.163 384.718 487.077C384.534 486.991 384.326 486.967 384.127 487.009C383.928 487.052 383.748 487.158 383.614 487.312C383.48 487.465 383.4 487.658 383.386 487.862ZM390.52 597.808C390.52 597.549 390.417 597.301 390.234 597.118C390.051 596.935 389.803 596.832 389.544 596.832C389.285 596.832 389.037 596.935 388.854 597.118C388.671 597.301 388.568 597.549 388.568 597.808C388.192 623.53 387.742 684.999 387.967 691.683C388.018 691.979 388.173 692.248 388.403 692.442C388.633 692.635 388.924 692.742 389.225 692.742C389.526 692.742 389.817 692.635 390.047 692.442C390.277 692.248 390.431 691.979 390.483 691.683C391.008 679.554 390.52 603.816 390.52 597.808ZM491.304 339.539C491.344 339.644 491.417 339.734 491.512 339.795C491.606 339.856 491.718 339.884 491.83 339.877C501.744 334.757 510.669 327.917 518.19 319.675C518.296 319.564 518.355 319.416 518.355 319.262C518.355 319.108 518.296 318.961 518.19 318.849C509.591 312.766 485.296 302.665 485.259 305.519C485.068 317.142 487.121 328.693 491.304 339.539ZM214.861 394.024C217.904 394.15 220.909 393.319 223.455 391.649C226.001 389.979 227.959 387.553 229.055 384.712C230.069 381.52 229.694 380.957 226.615 362.37C228.86 364.17 231.218 365.826 233.674 367.326C234.447 367.624 235.303 367.625 236.076 367.327C236.849 367.03 237.484 366.457 237.858 365.718C238.232 364.979 238.318 364.127 238.1 363.328C237.882 362.529 237.375 361.84 236.678 361.393C230.396 358.126 225.572 352.617 223.16 345.96C222.822 344.796 218.429 344.421 216.776 347.237C216.776 347.575 222.522 379.492 222.597 379.83C222.841 380.791 222.841 381.798 222.597 382.759C222.039 383.965 221.185 385.011 220.115 385.798C219.045 386.586 217.793 387.091 216.476 387.265C215.426 387.473 214.345 387.469 213.296 387.255C212.247 387.041 211.252 386.621 210.367 386.018C209.482 385.416 208.726 384.643 208.142 383.746C207.559 382.849 207.16 381.844 206.968 380.791C206.776 379.738 206.796 378.657 207.026 377.612C207.256 376.566 207.691 375.577 208.307 374.701C208.922 373.826 209.706 373.081 210.612 372.511C211.518 371.941 212.529 371.557 213.585 371.382C214.466 371.227 215.25 370.729 215.764 369.997C216.278 369.264 216.48 368.358 216.326 367.476C216.171 366.595 215.673 365.811 214.941 365.297C214.209 364.783 213.302 364.581 212.421 364.735C209.815 365.17 207.371 366.284 205.334 367.965C203.297 369.647 201.739 371.835 200.818 374.31C199.972 376.548 199.69 378.96 199.998 381.333C200.305 383.705 201.192 385.966 202.58 387.914C203.968 389.863 205.815 391.439 207.957 392.505C210.099 393.571 212.47 394.092 214.861 394.024Z" fill="#F5556B"/>
<path d="M256.467 368.001C256.073 360.414 253.416 353.119 248.838 347.056C244.26 340.992 237.972 336.438 230.783 333.981C198.377 323.017 168.562 360.98 187.75 389.78C192.277 396.523 198.868 401.617 206.534 404.297C214.201 406.977 222.529 407.1 230.271 404.646C238.013 402.192 244.751 397.295 249.474 390.688C254.197 384.081 256.65 376.121 256.467 368.001ZM196.387 343.969C219.405 322.791 253.2 340.214 254.101 368.039C254.016 375.127 251.972 382.053 248.194 388.05C244.417 394.048 239.053 398.883 232.698 402.022C211.745 411.146 186.436 395.413 184.671 373.258C184.208 367.812 185.015 362.331 187.028 357.249C189.041 352.167 192.206 347.621 196.274 343.969H196.387ZM465.62 338.825C468.882 343.818 473.296 347.954 478.49 350.884C483.684 353.814 489.506 355.453 495.466 355.663C501.426 355.873 507.349 354.647 512.737 352.089C518.124 349.53 522.817 345.715 526.422 340.964C530.026 336.212 532.435 330.664 533.447 324.787C534.459 318.91 534.043 312.875 532.235 307.192C530.427 301.509 527.28 296.344 523.058 292.132C518.836 287.919 513.664 284.784 507.977 282.988C474.257 272.549 447.146 311.827 465.62 338.825ZM474.257 293.052C497.726 271.423 531.07 290.16 531.934 317.121C531.858 324.192 529.835 331.105 526.085 337.101C522.335 343.096 517.005 347.942 510.68 351.104C489.765 360.229 464.419 344.533 462.616 322.341C462.163 316.881 462.989 311.391 465.029 306.306C467.069 301.222 470.268 296.683 474.369 293.052H474.257ZM234.049 161.063C206.3 102.485 135.18 77.5146 77.8039 116.567C3.45485 167.372 21.0283 274.615 104.615 303.453C186.248 332.442 275.354 248.33 234.049 161.063ZM181.742 295.868C174.928 299.205 167.744 301.725 160.339 303.378C160.827 298.722 161.428 286.706 161.653 281.073C165.183 286.706 171.566 292.338 179.489 291.212C186.398 290.123 192.519 283.702 198.264 272.437C203.889 260.126 207.053 246.834 207.577 233.31C208.189 231.744 208.58 230.101 208.741 228.428C210.649 224.031 212.87 219.777 215.387 215.699C216.739 214.521 217.915 213.155 218.879 211.643C219.929 208.732 220.162 205.59 219.555 202.556C219.437 199.513 218.315 196.595 216.363 194.258C217.903 191.141 222.184 176.909 222.897 174.131C222.958 173.833 222.908 173.523 222.756 173.26C222.603 172.997 222.36 172.799 222.071 172.704C214.543 171.556 206.928 171.079 199.316 171.277C199.053 170.789 185.535 209.39 184.296 212.582C184.238 212.757 184.217 212.942 184.234 213.125C184.251 213.308 184.305 213.486 184.393 213.648C184.481 213.81 184.601 213.952 184.745 214.065C184.89 214.179 185.057 214.262 185.234 214.309C188.966 214.888 192.727 215.264 196.499 215.436C196.499 217.05 195.786 221.519 195.523 222.946C194.452 224.305 193.58 225.81 192.932 227.414C188.27 231.469 184.989 236.877 183.545 242.885C176.898 213.708 172.28 201.167 145.995 186.56C144.68 185.846 143.103 185.321 141.676 184.382C159.851 188.738 161.878 190.803 162.554 189.902C183.132 160.913 173.556 127.756 152.453 114.426C132.702 100.157 113.214 113.638 106.117 136.205C100.86 153.966 109.872 169.512 114.528 175.971C110.247 176.384 108.783 176.872 105.366 177.247C76.4521 180.364 53.0209 215.023 42.2816 242.096C10.2514 168.611 80.0193 84.9495 161.127 104.325C253.838 129.747 270.698 252.836 181.742 295.868ZM66.8768 277.093C69.7306 272.662 76.8651 260.346 78.5173 257.454C99.3951 273.526 138.597 275.628 159.175 261.923C159.175 262.561 158.236 298.759 158.236 303.904C141.972 306.88 125.237 306.006 109.372 301.35C93.5068 296.694 78.953 288.386 66.8768 277.093ZM184.671 251.258C184.603 250.087 184.465 248.921 184.258 247.766C184.596 246.715 184.821 245.776 185.159 244.537C187.6 248.592 195.673 255.802 199.015 256.215C199.183 256.228 199.351 256.184 199.491 256.091C199.632 255.997 199.736 255.859 199.788 255.698C199.84 255.538 199.837 255.364 199.778 255.206C199.72 255.048 199.61 254.914 199.466 254.826C193.907 251.37 189.441 246.41 186.586 240.519C187.451 238.163 188.722 235.978 190.341 234.061C193.285 238.681 197.424 242.418 202.32 244.875C202.406 244.897 202.496 244.902 202.584 244.89C202.672 244.877 202.757 244.847 202.834 244.802C202.911 244.757 202.978 244.697 203.031 244.625C203.085 244.554 203.124 244.473 203.146 244.387C203.168 244.301 203.173 244.211 203.16 244.122C203.148 244.034 203.118 243.949 203.073 243.873C203.027 243.796 202.967 243.729 202.896 243.675C202.825 243.622 202.744 243.583 202.658 243.561C198.266 240.542 194.65 236.528 192.106 231.845C192.594 231.244 193.12 230.644 193.646 230.08C196.662 233.048 200.682 234.777 204.911 234.924C204.246 246.179 201.931 257.275 198.039 267.856C194.962 275.295 190.146 281.887 183.995 287.081C189.17 277.036 190.351 265.405 187.3 254.525C187.224 254.268 187.065 254.043 186.848 253.887C186.63 253.73 186.366 253.651 186.098 253.662C182.906 253.662 187.375 266.729 164.882 281.186C163.72 279.523 162.679 277.778 161.766 275.966C161.991 263.199 161.465 250.47 160.94 238.154C160.94 237.924 160.849 237.705 160.687 237.543C160.525 237.381 160.305 237.29 160.076 237.29C159.847 237.29 159.627 237.381 159.465 237.543C159.303 237.705 159.212 237.924 159.212 238.154C159.438 244.687 159.212 251.146 159.212 258.881C146.595 266.804 132.139 269.545 113.664 267.48C101.375 266.833 89.5344 262.647 79.5687 255.427C80.883 253.023 86.3653 242.509 87.9048 239.693C87.979 239.565 88.0174 239.419 88.0159 239.271C88.0144 239.123 87.9731 238.978 87.8963 238.851C87.8195 238.724 87.7101 238.621 87.5795 238.551C87.4488 238.481 87.3018 238.447 87.1538 238.454C86.2526 238.454 87.1538 238.229 79.6438 251.108C67.7987 246.468 58.2328 237.387 52.9833 225.8C59.0611 214.197 67.0309 203.689 76.5647 194.708C81.4619 201.507 87.6759 207.253 94.8375 211.603C101.999 215.953 109.962 218.819 118.253 220.031C126.544 221.243 134.994 220.776 143.101 218.658C151.209 216.54 158.807 212.813 165.446 207.7C165.573 207.565 165.648 207.388 165.658 207.202C165.668 207.017 165.611 206.833 165.499 206.685C165.387 206.537 165.225 206.433 165.044 206.392C164.862 206.351 164.672 206.375 164.507 206.461C159.058 210.206 153.136 213.211 146.896 215.398C134.587 219.297 121.364 219.218 109.102 215.174C96.841 211.13 86.1657 203.325 78.5924 192.868C82.1887 189.95 86.0918 187.432 90.2329 185.358C104.464 217.388 139.574 219.679 156.546 196.623C165.333 203.457 168.037 204.321 175.058 221.294C158.949 235.337 144.267 242.322 130.224 242.171C118.554 242.253 107.018 239.682 96.4867 234.654C85.9554 229.626 76.7038 222.271 69.4302 213.145C68.8294 212.319 67.4776 213.145 68.0784 214.046C79.3434 231.207 100.709 242.472 126.844 244.95C144.53 246.677 163.305 236.576 175.922 223.734C177.875 230.193 180.24 239.693 180.503 240.82C179.339 244.575 166.76 256.253 164.77 256.703C163.606 256.966 164.206 258.768 165.258 258.318C171.31 254.816 176.761 250.366 181.404 245.138C181.817 247.09 182.568 250.583 182.681 251.446C182.794 252.31 184.746 252.46 184.671 251.258ZM207.201 194.633C206.736 194.502 206.245 194.487 205.773 194.589C205.3 194.69 204.86 194.906 204.49 195.217C204.119 195.528 203.831 195.925 203.649 196.373C203.467 196.821 203.398 197.306 203.446 197.787C199.428 198.651 199.691 201.542 202.019 203.42C204.324 204.874 206.706 206.203 209.154 207.4C208.29 209.465 207.614 211.155 206.713 213.145C202.958 213.145 191.28 212.432 187.225 212.094C188.727 207.4 196.65 185.584 201.005 173.793C204.76 173.981 216.514 174.281 220.306 174.882C219.405 178.637 215.575 189.564 214.486 192.981C213.906 192.598 213.255 192.337 212.571 192.213C211.888 192.089 211.187 192.105 210.509 192.259C209.832 192.414 209.193 192.704 208.631 193.112C208.069 193.519 207.595 194.037 207.239 194.633H207.201ZM208.853 214.948C209.492 212.92 210.28 210.967 211.332 208.414C211.499 208.443 211.671 208.418 211.823 208.341C211.975 208.265 212.097 208.142 212.173 207.99C212.249 207.838 212.274 207.666 212.244 207.498C212.214 207.331 212.131 207.178 212.008 207.062C211.069 206.198 202.357 201.58 202.695 200.679C203.033 199.777 205.211 200.416 206.45 201.129C208.894 202.136 211.403 202.976 213.96 203.645C214.124 203.663 214.29 203.626 214.431 203.54C214.572 203.455 214.681 203.325 214.741 203.171C214.801 203.017 214.808 202.847 214.762 202.689C214.716 202.53 214.619 202.391 214.486 202.293C211.553 201.229 208.694 199.975 205.924 198.538C205.361 198.013 205.098 196.586 205.924 196.623C208.683 197.281 211.253 198.566 213.434 200.378C213.521 200.46 213.622 200.523 213.733 200.565C213.844 200.607 213.962 200.627 214.081 200.624C214.199 200.62 214.316 200.594 214.424 200.545C214.532 200.496 214.63 200.427 214.711 200.341C214.793 200.254 214.856 200.153 214.898 200.042C214.94 199.931 214.96 199.813 214.957 199.695C214.953 199.576 214.927 199.459 214.878 199.351C214.829 199.243 214.76 199.145 214.674 199.064C213.263 197.95 211.769 196.946 210.205 196.06C208.328 194.971 209.679 193.619 211.557 193.882C214.073 194.258 217.302 197.637 216.964 204.584C217.277 206.45 217.034 208.366 216.267 210.095C215.499 211.825 214.24 213.29 212.646 214.309C210.226 218.149 208.177 222.21 206.525 226.438C204.874 226.865 203.135 226.813 201.513 226.288C199.89 225.762 198.451 224.785 197.363 223.471C197.626 222.157 198.414 217.651 198.64 215.961C207.013 216.224 208.478 216.187 208.891 214.948H208.853ZM185.835 260.421C187.128 270.002 185.547 279.752 181.292 288.433C178.548 289.219 175.628 289.132 172.937 288.183C170.245 287.234 167.916 285.471 166.272 283.138C175.422 278.301 182.409 270.187 185.835 260.421ZM116.743 179.35C116.81 179.429 116.897 179.488 116.996 179.521C117.094 179.554 117.199 179.559 117.3 179.536C117.401 179.512 117.494 179.462 117.568 179.389C117.642 179.317 117.694 179.225 117.72 179.125C123.39 156.82 123.239 158.21 122.714 157.909C116.405 154.455 118.395 147.733 120.949 146.945C122.226 146.531 123.915 147.358 125.605 149.235C126.708 150.272 127.546 151.561 128.046 152.99C131.801 163.504 152.603 149.648 161.615 143.002C162.241 142.482 162.98 142.118 163.774 141.939C164.567 141.76 165.391 141.772 166.179 141.974C166.967 142.175 167.696 142.561 168.306 143.098C168.916 143.636 169.39 144.311 169.689 145.067C170.552 146.719 168.975 148.109 168.037 146.306C166.084 143.002 162.667 144.842 162.742 145.743C163.493 155.055 161.766 168.273 154.519 174.732C147.271 181.19 138.86 177.848 138.109 178.487C137.358 179.125 137.771 179.726 137.771 180.439C137.435 181.236 137.286 182.099 137.335 182.963C137.385 183.826 137.63 184.667 138.054 185.421C138.478 186.174 139.069 186.821 139.782 187.311C140.494 187.802 141.309 188.123 142.165 188.25C145.233 189.409 148.157 190.921 150.876 192.756C137.508 213.408 108.294 210.366 97.1046 182.542C103.36 180.406 109.88 179.143 116.48 178.787L116.743 179.35ZM51.7442 228.165C54.1702 233.963 57.7921 239.184 62.3731 243.487C66.9541 247.789 72.3913 251.077 78.3296 253.136C77.879 253.849 67.4025 270.972 64.9242 275.178C55.8068 266.418 48.3964 256.041 43.0701 244.575C46.7876 237.891 48.8153 233.835 51.7442 228.203V228.165ZM708.043 161.627C686.903 94.0366 610.714 62.9827 551.535 98.9556C484.846 139.435 480.866 229.555 544.475 275.065C628.062 334.695 737.107 252.385 708.043 161.627ZM593.891 264.063C606.32 280.547 618.787 281.824 627.123 279.909C642.669 276.379 656.299 258.919 660.28 237.403C660.334 237.149 660.286 236.883 660.145 236.665C660.004 236.447 659.783 236.293 659.529 236.238C659.275 236.184 659.009 236.232 658.791 236.373C658.573 236.514 658.419 236.736 658.365 236.989C656.597 246.177 652.743 254.836 647.1 262.298C625.02 291.061 602.04 277.018 584.429 245.175C578.704 236.046 575.492 225.567 575.116 214.797C584.053 210.592 583.865 210.367 584.917 211.268C595.356 220.242 614.318 241.646 616.947 244.537C616.994 244.787 617.126 245.012 617.322 245.174C617.517 245.336 617.763 245.425 618.017 245.425C618.271 245.425 618.517 245.336 618.712 245.174C618.908 245.012 619.04 244.787 619.087 244.537C623.293 227.564 626.597 209.953 639.101 197.825C643.744 196.756 648.446 195.966 653.183 195.459C669.817 216.487 667.452 244.537 667.377 271.16C656.225 279.675 643.414 285.762 629.768 289.028C616.123 292.294 601.945 292.667 588.146 290.123C588.958 281.229 590.888 272.473 593.891 264.063ZM656.374 195.121C658.402 195.121 658.214 191.817 656.374 192.08C648.537 192.733 640.842 194.556 633.544 197.487C632.53 197.9 631.366 198.125 631.742 199.139C632.117 200.153 632.943 199.402 635.759 198.688C624.72 210.366 620.552 226.813 617.66 241.608C615.595 239.092 610.488 233.272 609.174 231.77C620.739 206.274 620.101 205.485 626.898 200.341C629.526 198.238 640.228 190.503 649.09 184.945C653.821 181.941 657.2 179.838 665.086 190.765C672.408 200.941 672.596 201.092 667.902 223.434C666.491 213.146 662.428 203.401 656.112 195.159L656.374 195.121ZM573.764 173.004C574.44 173.004 574.778 173.53 575.304 174.318C587.695 193.094 586.757 190.953 586.757 191.329C586.757 193.131 589.197 195.835 591.638 198.125C589.648 198.876 585.931 200.378 583.715 201.279C583.715 194.37 578.834 194.37 577.519 197.262C575.191 193.845 570.009 187.085 568.958 185.771C568.673 185.367 568.288 185.043 567.84 184.833C567.393 184.622 566.898 184.531 566.405 184.57C564.64 182.317 560.659 177.06 559.12 174.769C559.495 174.694 572.563 173.23 573.727 173.004H573.764ZM599.298 208.602C598.735 213.183 591.563 208.076 594.342 205.523C594.855 206.392 595.57 207.126 596.426 207.661C597.282 208.197 598.254 208.52 599.261 208.602H599.298ZM598.885 206.236C597.346 205.973 594.229 202.481 595.13 201.692C596.032 200.904 599.899 205.635 599.824 206.198C599.509 206.305 599.17 206.318 598.848 206.236H598.885ZM607.484 230.08C604.217 226.626 589.385 211.305 589.01 211.005C588.465 210.192 587.762 209.496 586.943 208.961C586.123 208.426 585.204 208.061 584.241 207.888C583.748 206.61 583.555 205.235 583.678 203.87L593.365 199.74C594.267 200.528 593.365 199.74 592.915 201.467C592.699 202.273 592.793 203.13 593.178 203.87C589.423 206.649 593.178 213.108 598.134 212.62C599.607 213.629 600.88 214.902 601.889 216.375C603 220.207 604.576 223.89 606.583 227.339C607.822 229.555 607.747 229.292 607.447 230.08H607.484ZM604.292 216.675C604.292 215.473 608.611 210.967 609.287 210.404C611.299 210.989 613.259 211.743 615.144 212.657C614.056 215.135 610.563 223.058 608.836 227.076C606.952 223.778 605.416 220.292 604.255 216.675H604.292ZM602.753 214.272C602.027 213.315 601.167 212.467 600.2 211.756C600.662 211.256 601.01 210.661 601.217 210.012C601.425 209.363 601.488 208.677 601.401 208.001C601.617 207.857 601.799 207.669 601.935 207.448C602.071 207.228 602.158 206.981 602.19 206.724C602.49 204.959 600.5 203.495 599.186 202.256C595.297 199.204 591.836 195.642 588.897 191.667C591.881 193.161 594.733 194.907 597.421 196.886C601.927 200.228 607.71 203.382 607.259 208.94C605.601 210.59 604.082 212.373 602.715 214.272H602.753ZM567.005 186.823C570.822 191.134 574.323 195.714 577.482 200.528C577.591 200.696 577.747 200.827 577.931 200.906C578.115 200.985 578.318 201.008 578.514 200.972C578.711 200.936 578.893 200.842 579.036 200.703C579.18 200.564 579.279 200.386 579.322 200.19C579.322 199.139 579.81 197.262 580.786 197.675C582.851 200.491 580.786 204.884 582.176 208.376C572.112 212.807 580.336 211.681 574.14 204.621C568.395 198.576 566.142 188.738 567.005 186.823ZM605.719 183.068C607.091 178.155 607.091 172.96 605.719 168.048C605.162 165.859 604.822 163.62 604.706 161.364C606.961 161.604 609.24 161.503 611.465 161.063C618.036 159.974 621.415 156.445 623.03 157.534C624.081 158.247 624.269 160.463 623.593 163.992C623.578 164.107 623.599 164.223 623.652 164.325C623.706 164.428 623.789 164.511 623.892 164.565C623.994 164.618 624.111 164.638 624.225 164.623C624.34 164.608 624.447 164.558 624.532 164.48C625.961 163.309 627.753 162.672 629.601 162.678C634.595 163.091 634.408 170.188 629.601 173.23C629.498 173.312 629.426 173.428 629.4 173.557C629.373 173.687 629.393 173.821 629.456 173.938C629.518 174.054 629.62 174.145 629.743 174.194C629.865 174.243 630.001 174.247 630.127 174.206C631.93 173.587 633.863 173.451 635.735 173.814C637.606 174.176 639.35 175.024 640.791 176.271C641.578 179.415 642.646 182.481 643.983 185.433C638.763 189.001 631.779 193.882 626.785 197.75C622.279 188.287 616.684 195.009 612.816 187.423C608.911 180.927 606.433 183.18 605.532 182.955L605.719 183.068ZM668.653 228.128C671.359 219.882 672.913 211.302 673.272 202.631C672.739 198.457 671.048 194.516 668.39 191.254C657.726 175.858 653.37 178.411 645.147 183.969C644.396 181.678 642.744 176.909 642.443 175.633C642.931 175.145 644.208 173.905 644.584 173.643C645.972 171.693 647.049 169.54 647.775 167.259C648.736 164.073 649.13 160.743 648.939 157.421C649.128 154.272 648.629 151.12 647.475 148.184C645.086 144.009 641.311 140.802 636.804 139.122C632.297 137.441 627.344 137.392 622.805 138.984C615.783 136.656 606.733 134.253 603.316 135.717C600.599 136.372 598.164 137.881 596.367 140.023C594.571 142.164 593.509 144.825 593.337 147.615C593.165 150.405 593.891 153.176 595.41 155.522C596.929 157.868 599.161 159.666 601.777 160.65C601.663 163.55 601.992 166.449 602.753 169.249C604.026 173.191 604.13 177.416 603.053 181.415C602.377 184.419 603.354 185.771 606.808 185.17C610.864 185.471 608.648 192.68 617.848 194.032C620.063 194.408 621.828 194.746 624.119 198.989C620.288 202.05 617.41 206.14 615.82 210.78C613.778 209.575 611.613 208.594 609.362 207.851C609.113 205.978 608.461 204.183 607.449 202.588C606.438 200.993 605.091 199.637 603.504 198.613C600.005 195.691 596.233 193.114 592.239 190.916C591.45 190.503 589.798 189.226 588.484 189.489C575.417 169.587 576.768 170.451 572.675 170.451C567.389 170.654 562.133 171.358 556.98 172.554C556.794 172.623 556.627 172.734 556.491 172.877C556.354 173.02 556.252 173.192 556.191 173.38C555.966 174.281 556.191 173.755 561.448 181.265C566.329 188.099 564.565 184.757 564.865 188.437C565.531 195.532 568.422 202.235 573.126 207.588C574.021 208.964 574.382 210.62 574.14 212.244L573.652 212.469C572.375 213.108 573.99 225.912 574.891 228.916C579.016 240.718 584.958 251.803 592.502 261.772C588.805 270.647 586.537 280.051 585.78 289.635C552.248 282.125 523.598 259.332 510.68 229.742C497.763 200.153 501.068 165.457 520.669 133.051C574.928 53.4075 693.924 85.4001 708.043 178.449C713.225 213.784 697.754 247.316 669.967 269.32C670.347 255.594 669.82 241.859 668.39 228.203L668.653 228.128ZM653.859 304.354C654.186 310.378 655.232 316.34 656.975 322.115C657.095 322.474 657.352 322.77 657.69 322.938C658.028 323.107 658.419 323.135 658.778 323.017C661.631 322.19 657.426 318.248 656.187 304.242C656.074 302.777 653.746 302.852 653.859 304.354ZM665.349 349.226C665.274 348.913 665.078 348.642 664.803 348.473C664.529 348.304 664.198 348.251 663.884 348.325C663.571 348.4 663.299 348.596 663.13 348.871C662.961 349.145 662.908 349.476 662.983 349.79C667.79 374.197 667.151 376.563 669.592 376.075C672.033 375.587 670.305 373.258 665.349 349.226ZM674.173 407.279C672.108 407.842 674.849 408.142 676.689 430.935C676.689 433 680.068 432.888 679.843 430.935C678.897 423.229 677.404 415.599 675.375 408.105C675.364 407.966 675.322 407.83 675.252 407.709C675.182 407.589 675.086 407.485 674.971 407.406C674.856 407.326 674.724 407.274 674.586 407.252C674.448 407.23 674.307 407.239 674.173 407.279ZM578.871 345.171C582.881 333.274 586.228 321.165 588.897 308.898C588.954 308.615 588.9 308.322 588.747 308.078C588.594 307.834 588.353 307.658 588.075 307.586C587.796 307.514 587.5 307.551 587.248 307.69C586.996 307.83 586.807 308.06 586.719 308.334C583.715 320.388 579.735 332.066 576.017 344.307C575.955 344.669 576.026 345.04 576.219 345.352C576.411 345.665 576.711 345.895 577.062 346.002C577.413 346.108 577.791 346.082 578.124 345.929C578.457 345.776 578.723 345.506 578.871 345.171ZM563.626 394.775C565.729 394.775 565.353 392.221 571.324 369.879C571.403 369.61 571.373 369.32 571.239 369.074C571.105 368.828 570.879 368.644 570.61 368.565C570.341 368.485 570.052 368.515 569.805 368.649C569.559 368.783 569.376 369.009 569.296 369.278C568.132 373.033 563.025 388.842 562.086 392.822C562.029 393.055 562.026 393.298 562.077 393.532C562.128 393.766 562.231 393.986 562.38 394.174C562.528 394.362 562.717 394.514 562.933 394.618C563.149 394.722 563.386 394.776 563.626 394.775ZM546.578 443.59C547.892 443.59 547.817 442.613 548.906 438.257C550.371 432.325 552.661 423.237 553.562 420.684C554.126 419.182 551.835 418.506 551.272 419.933C548.74 427.289 546.744 434.819 545.301 442.463C545.33 442.778 545.478 443.071 545.716 443.28C545.953 443.49 546.262 443.6 546.578 443.59ZM534.187 475.545C530.727 482.248 528.055 489.329 526.226 496.648C526.126 497.026 526.181 497.429 526.378 497.767C526.576 498.105 526.899 498.351 527.277 498.45C527.656 498.55 528.058 498.495 528.396 498.298C528.734 498.101 528.98 497.777 529.08 497.399C535.351 476.108 537.378 475.92 535.538 474.869C535.406 474.816 535.264 474.792 535.121 474.798C534.979 474.804 534.839 474.841 534.711 474.904C534.584 474.968 534.471 475.058 534.381 475.169C534.29 475.279 534.224 475.407 534.187 475.545ZM494.947 366.387C495.322 369.316 496.674 381.407 497.125 384.749C497.152 384.956 497.22 385.156 497.324 385.337C497.428 385.518 497.567 385.676 497.733 385.803C497.898 385.931 498.087 386.024 498.289 386.078C498.491 386.132 498.701 386.146 498.908 386.119C499.116 386.092 499.315 386.025 499.496 385.92C499.677 385.816 499.836 385.677 499.963 385.511C500.09 385.346 500.184 385.157 500.238 384.955C500.292 384.753 500.306 384.543 500.279 384.336C499.791 381.106 497.688 368.978 497.237 366.086C497.012 364.735 494.759 364.997 494.947 366.387ZM500.842 420.121C501.255 422.486 502.795 432.7 503.283 435.404C503.658 437.431 506.662 436.68 506.287 434.69C505.386 429.696 504.184 424.664 503.245 419.67C502.945 417.98 500.579 418.581 500.842 420.121ZM506.925 472.353C507.093 478.656 507.771 484.935 508.953 491.128C509.404 493.193 512.483 492.367 512.107 490.339C510.824 484.373 509.846 478.344 509.178 472.278C508.84 470.888 506.662 470.851 506.925 472.353ZM409.295 159.862C408.582 158.51 406.592 159.636 407.23 160.988C419.434 186.034 418.495 186.259 420.26 186.259C420.551 186.257 420.837 186.181 421.09 186.038C421.344 185.895 421.558 185.691 421.711 185.444C421.865 185.196 421.953 184.914 421.969 184.624C421.984 184.333 421.926 184.043 421.799 183.781C417.669 175.708 413.313 167.86 409.295 159.862ZM432.576 208.827C432.013 207.55 430.098 208.564 430.661 209.841C434.416 218.214 437.533 226.813 441.363 235.225C442.189 237.102 444.93 235.6 444.104 233.76C440.387 225.124 435.993 216.45 432.576 208.827ZM465.62 285.316C465.848 285.329 466.075 285.285 466.281 285.189C466.488 285.093 466.668 284.948 466.805 284.766C466.942 284.585 467.033 284.372 467.068 284.147C467.104 283.922 467.084 283.692 467.01 283.476C465.695 279.721 459.199 265.94 457.547 262.223C456.871 260.683 454.618 261.885 455.257 263.425C464.193 283.927 464.043 285.316 465.62 285.316ZM534.036 271.686C532.647 274.051 526.264 282.725 524.536 284.941C524.408 285.106 524.314 285.295 524.258 285.497C524.203 285.698 524.188 285.909 524.214 286.116C524.241 286.324 524.307 286.524 524.411 286.706C524.514 286.887 524.653 287.047 524.818 287.175C524.983 287.303 525.172 287.398 525.374 287.453C525.575 287.508 525.786 287.523 525.993 287.497C526.201 287.471 526.401 287.404 526.583 287.3C526.764 287.197 526.924 287.059 527.052 286.893C530.286 282.384 533.221 277.667 535.839 272.775C535.983 272.536 536.027 272.249 535.96 271.978C535.893 271.707 535.721 271.473 535.482 271.329C535.243 271.185 534.957 271.141 534.685 271.208C534.414 271.275 534.181 271.447 534.036 271.686ZM468.437 130.047C469.976 130.047 470.802 127.719 469.188 127.005C465.77 125.466 451.389 120.697 447.822 119.495C446.357 118.932 445.606 121.185 447.071 121.748C450.863 123.1 467.197 130.047 468.437 130.047ZM481.466 135.68C488.207 139.347 495.287 142.352 502.607 144.654C503.027 144.726 503.459 144.641 503.82 144.414C504.181 144.187 504.445 143.834 504.562 143.424C504.678 143.014 504.639 142.575 504.452 142.192C504.264 141.809 503.941 141.509 503.546 141.35C496.36 139.399 489.37 136.784 482.668 133.539C481.241 132.901 480.04 135.079 481.466 135.68ZM302.24 133.427C317.26 123.326 321.766 125.616 321.015 122.95C320.972 122.796 320.899 122.653 320.8 122.528C320.7 122.403 320.577 122.299 320.437 122.222C320.298 122.145 320.144 122.097 319.985 122.08C319.827 122.063 319.666 122.078 319.513 122.124C312.734 123.907 306.282 126.759 300.4 130.573C298.673 131.925 300.4 134.628 302.24 133.427ZM268.107 146.081C266.943 147.02 267.882 148.559 269.196 148.559C269.647 148.559 269.722 148.559 273.852 146.494C277.983 144.429 282.714 142.213 284.479 141.688C284.775 141.571 285.018 141.347 285.158 141.061C285.298 140.775 285.326 140.447 285.237 140.141C285.147 139.836 284.947 139.574 284.675 139.409C284.402 139.243 284.078 139.186 283.766 139.247C278.332 140.998 273.086 143.287 268.107 146.081Z" fill="#F5556B"/>
<path d="M253.613 153.178C251.661 154.267 240.884 159.937 239.72 160.688C239.48 160.855 239.298 161.091 239.197 161.365C239.095 161.639 239.081 161.937 239.154 162.219C239.228 162.502 239.387 162.755 239.609 162.944C239.83 163.134 240.105 163.25 240.396 163.279C245.384 160.922 250.225 158.264 254.89 155.318C255.101 155.119 255.238 154.854 255.277 154.566C255.317 154.278 255.258 153.986 255.109 153.737C254.961 153.487 254.731 153.296 254.459 153.194C254.187 153.093 253.889 153.087 253.613 153.178ZM221.545 93.1731C226.585 93.2071 231.579 92.22 236.227 90.2716C240.875 88.3231 245.08 85.4536 248.589 81.836C252.098 78.2184 254.838 73.9277 256.643 69.2225C258.449 64.5174 259.283 59.4953 259.095 54.4591C257.969 20.9269 214.524 4.93064 192.557 33.4686C172.73 58.2892 191.806 93.1731 221.545 93.1731ZM199.015 30.5397C222.034 9.32399 255.829 26.7847 256.692 54.6093C256.623 61.6714 254.587 68.5745 250.813 74.544C247.039 80.5134 241.676 85.3131 235.326 88.4043C214.336 97.5665 189.065 81.833 187.262 59.6785C186.829 54.243 187.666 48.7812 189.706 43.7243C191.745 38.6674 194.932 34.1538 199.015 30.5397ZM305.057 61.3683C311.703 62.0817 318.387 62.1568 325.033 62.4572C325.332 62.4572 325.619 62.3386 325.83 62.1273C326.041 61.916 326.16 61.6295 326.16 61.3307C326.16 61.032 326.041 60.7454 325.83 60.5342C325.619 60.3229 325.332 60.2042 325.033 60.2042C318.049 59.5659 313.768 58.7022 305.057 58.139C303.066 58.0263 303.029 61.143 305.057 61.3683ZM265.704 57.388C268.746 57.7259 281.25 58.5896 284.479 59.0026C286.169 59.2655 286.845 56.7121 285.08 56.4117C278.724 55.4139 272.319 54.7621 265.892 54.4591C265.7 54.4468 265.507 54.4724 265.324 54.5346C265.142 54.5968 264.974 54.6944 264.829 54.8216C264.684 54.9489 264.566 55.1034 264.481 55.2764C264.396 55.4493 264.346 55.6374 264.334 55.8297C264.321 56.022 264.347 56.2148 264.409 56.3972C264.471 56.5796 264.569 56.748 264.696 56.8927C264.824 57.0374 264.978 57.1556 265.151 57.2406C265.324 57.3256 265.512 57.3757 265.704 57.388ZM116.405 335.22C117.494 328.311 117.757 321.44 118.583 314.568C118.771 313.291 116.668 312.991 116.481 314.305C115.429 321.064 113.814 327.861 113.026 334.732C113.03 335.145 113.181 335.543 113.452 335.853C113.724 336.164 114.098 336.367 114.506 336.426C114.915 336.485 115.331 336.396 115.679 336.175C116.027 335.954 116.285 335.615 116.405 335.22ZM112.35 353.808C108.595 374.423 107.731 376.939 110.435 376.939C112.463 376.939 112.087 375.587 114.641 354.108C114.828 352.719 112.65 352.418 112.35 353.808ZM181.405 388.128C175.697 391.132 168.6 394.625 166.385 395.939C166.077 396.121 165.838 396.4 165.706 396.732C165.574 397.064 165.556 397.431 165.654 397.775C165.753 398.119 165.963 398.42 166.252 398.631C166.54 398.842 166.891 398.952 167.248 398.943C172.484 396.345 177.574 393.462 182.493 390.306C182.723 390.131 182.884 389.882 182.95 389.601C183.015 389.32 182.98 389.025 182.851 388.766C182.722 388.508 182.507 388.303 182.243 388.187C181.979 388.07 181.682 388.05 181.405 388.128ZM159.438 399.694C155.338 401.615 151.34 403.746 147.459 406.077C146.258 407.166 147.685 408.969 149.111 408.293C150.538 407.617 158.537 402.66 160.376 401.797C162.216 400.933 160.827 399.093 159.438 399.694ZM310.652 430.973C312.003 431.837 313.28 429.771 311.966 428.87C309.112 426.993 298.26 418.957 295.256 417.38C294.867 417.192 294.424 417.154 294.008 417.272C293.593 417.389 293.236 417.655 293.003 418.018C291.464 420.421 296.645 421.773 310.652 430.973ZM258.645 396.277C260.522 397.591 262.4 398.83 264.315 400.032C277.119 408.518 276.519 408.781 277.307 408.781C277.567 408.777 277.819 408.697 278.033 408.55C278.247 408.403 278.413 408.196 278.509 407.955C278.605 407.714 278.628 407.45 278.575 407.196C278.521 406.942 278.394 406.709 278.208 406.528C272.508 401.836 266.553 397.461 260.372 393.423C258.57 392.334 256.918 395.113 258.645 396.277ZM628.4 520.717C622.242 521.581 615.896 522.219 609.625 523.646C609.239 523.765 608.909 524.019 608.693 524.36C608.478 524.701 608.392 525.109 608.451 525.508C608.51 525.907 608.71 526.272 609.015 526.537C609.32 526.802 609.709 526.948 610.113 526.951C611.577 526.951 620.927 524.435 628.888 523.196C630.84 523.046 630.09 520.417 628.4 520.717ZM595.206 526.801C588.897 527.739 581.95 528.303 575.116 529.467C573.201 529.805 573.727 532.583 575.604 532.583C577.482 532.583 590.925 529.88 595.694 529.129C597.233 528.866 596.708 526.575 595.206 526.801ZM367.99 392.184C367.801 391.865 367.493 391.635 367.134 391.543C366.775 391.452 366.394 391.506 366.075 391.696C365.757 391.885 365.526 392.193 365.435 392.552C365.343 392.911 365.398 393.292 365.587 393.611C367.44 396.631 370.36 398.843 373.769 399.81C377.177 400.777 380.824 400.427 383.987 398.83C384.198 398.701 384.353 398.497 384.419 398.258C384.485 398.019 384.459 397.765 384.344 397.545C384.23 397.325 384.036 397.158 383.802 397.075C383.568 396.993 383.312 397.003 383.086 397.103C380.392 398.187 377.404 398.289 374.643 397.389C371.883 396.49 369.528 394.647 367.99 392.184ZM394.275 378.29C394.013 380.468 392.06 379.267 391.91 380.581C391.91 381.294 392.511 381.557 393.262 381.557C393.928 381.534 394.577 381.334 395.14 380.977C395.704 380.62 396.162 380.119 396.468 379.527C396.774 378.934 396.916 378.27 396.881 377.604C396.845 376.938 396.633 376.294 396.266 375.737C394.16 373.479 392.238 371.055 390.52 368.49C390.456 368.256 390.301 368.057 390.089 367.937C389.878 367.818 389.628 367.787 389.394 367.851C389.16 367.916 388.961 368.071 388.841 368.282C388.722 368.494 388.691 368.744 388.756 368.978C389.638 370.964 390.747 372.841 392.06 374.573C392.918 375.736 393.66 376.982 394.275 378.29ZM374.336 350.804C374.237 350.356 373.963 349.965 373.576 349.719C373.189 349.472 372.719 349.39 372.271 349.489C371.823 349.589 371.433 349.863 371.186 350.25C370.94 350.637 370.857 351.107 370.957 351.555C372.008 358.689 371.37 361.731 374.186 361.731C374.724 361.731 375.24 361.517 375.62 361.137C376 360.757 376.214 360.241 376.214 359.703C376.214 358.764 374.637 352.381 374.336 350.804ZM403.851 351.142C403.771 350.732 403.546 350.365 403.217 350.109C402.888 349.852 402.477 349.724 402.06 349.746C401.644 349.769 401.25 349.942 400.951 350.233C400.652 350.524 400.468 350.914 400.434 351.329C400.434 351.893 400.959 358.614 401.147 359.14C401.202 359.638 401.452 360.094 401.843 360.407C402.234 360.72 402.733 360.866 403.231 360.811C403.729 360.756 404.185 360.506 404.498 360.115C404.812 359.724 404.957 359.225 404.902 358.727C404.827 358.276 404.226 354.596 403.851 351.142ZM368.441 348.889C368.923 347.292 369.923 345.902 371.283 344.936C372.643 343.971 374.285 343.485 375.951 343.557C376.243 343.59 376.537 343.512 376.774 343.338C377.011 343.164 377.173 342.907 377.228 342.618C377.603 339.914 367.502 341.003 365.287 348.025C365.172 348.443 365.229 348.89 365.443 349.267C365.658 349.643 366.014 349.919 366.432 350.034C366.85 350.148 367.297 350.092 367.674 349.877C368.051 349.663 368.327 349.307 368.441 348.889ZM396.528 342.205C397.895 342.126 399.249 342.498 400.382 343.265C401.515 344.032 402.365 345.15 402.799 346.448C403.475 347.912 405.841 346.936 405.39 345.359C404.655 343.589 403.329 342.128 401.638 341.224C399.947 340.32 397.996 340.03 396.115 340.402C395.912 340.488 395.745 340.643 395.645 340.84C395.544 341.036 395.516 341.262 395.565 341.477C395.615 341.692 395.738 341.883 395.914 342.016C396.091 342.149 396.308 342.216 396.528 342.205ZM686.302 468.56C686.302 468.56 684.312 459.473 683.786 456.845C683.721 456.551 683.542 456.295 683.289 456.133C683.035 455.971 682.728 455.917 682.434 455.981C682.14 456.046 681.884 456.225 681.722 456.478C681.56 456.732 681.506 457.039 681.571 457.333L683.335 468.035C677.37 467.279 671.313 467.8 665.564 469.563C659.816 471.325 654.507 474.29 649.991 478.259C645.475 482.229 641.854 487.113 639.368 492.587C636.882 498.062 635.588 504.003 635.572 510.016C637.825 566.604 719.045 565.477 720.172 510.016C720.248 500.24 716.904 490.745 710.719 483.175C704.534 475.605 695.896 470.435 686.302 468.56ZM695.99 527.777C690.057 544.637 667.677 541.633 667.677 521.506V509.34C667.021 509.424 666.355 509.367 665.723 509.173C665.09 508.979 664.507 508.653 664.01 508.216C663.514 507.779 663.116 507.241 662.844 506.639C662.572 506.036 662.431 505.382 662.431 504.721C662.431 504.06 662.572 503.406 662.844 502.804C663.116 502.201 663.514 501.663 664.01 501.226C664.507 500.789 665.09 500.463 665.723 500.269C666.355 500.076 667.021 500.019 667.677 500.103C667.677 496.348 667.677 492.593 667.94 488.5C667.955 487.893 668.088 487.295 668.334 486.74C668.58 486.186 668.933 485.685 669.372 485.266C669.811 484.848 670.329 484.52 670.895 484.302C671.461 484.083 672.065 483.979 672.671 483.994C673.9 484.033 675.063 484.556 675.907 485.45C676.751 486.343 677.208 487.534 677.177 488.762C677.177 492.705 677.177 496.46 676.952 500.027H684.875C685.481 500.012 686.084 500.119 686.648 500.34C687.213 500.562 687.727 500.894 688.161 501.318C688.595 501.741 688.939 502.247 689.175 502.806C689.41 503.365 689.531 503.965 689.531 504.571C689.541 505.181 689.43 505.786 689.205 506.353C688.98 506.919 688.644 507.436 688.218 507.872C687.793 508.309 687.284 508.656 686.723 508.895C686.162 509.134 685.56 509.26 684.95 509.265H676.839C676.839 522.97 676.464 525.261 678.341 527.589C681.007 530.969 685.063 529.842 687.166 524.66C687.579 523.49 688.44 522.532 689.56 521.997C690.679 521.462 691.966 521.393 693.136 521.806C694.306 522.22 695.264 523.081 695.799 524.201C696.335 525.32 696.403 526.607 695.99 527.777ZM384.55 39.7019C376.864 39.6622 369.247 41.146 362.138 44.0677C355.029 46.9895 348.57 51.2911 343.133 56.7241C337.697 62.157 333.391 68.6136 330.465 75.7206C327.539 82.8275 326.05 90.444 326.085 98.1297C327.624 175.483 441.476 175.52 442.978 98.1297C443.018 90.4458 441.534 82.8301 438.611 75.7234C435.689 68.6166 431.387 62.1598 425.953 56.7263C420.52 51.2928 414.063 46.9906 406.956 44.0684C399.85 41.1462 392.234 39.6621 384.55 39.7019ZM401.41 69.2162C400.835 70.2945 399.859 71.1036 398.693 71.4689C397.527 71.8342 396.264 71.7264 395.177 71.1688C393.24 70.1039 390.99 69.7536 388.821 70.1792C386.652 70.6048 384.702 71.7791 383.311 73.4969C378.993 78.0029 379.18 93.3234 379.18 94.1495L390.445 92.4221C391.66 92.2379 392.899 92.5439 393.888 93.2727C394.878 94.0016 395.537 95.0936 395.721 96.3086C395.905 97.5236 395.599 98.762 394.871 99.7514C394.142 100.741 393.05 101.4 391.835 101.584L379.218 103.499C379.218 112.436 379.631 121.073 379.931 129.784C379.878 130.952 379.387 132.057 378.557 132.879C377.727 133.702 376.618 134.182 375.45 134.225C374.282 134.267 373.14 133.869 372.252 133.109C371.364 132.349 370.795 131.283 370.657 130.122C370.243 117.806 369.943 105.302 369.793 91.934C369.793 84.424 369.793 74.6234 376.477 67.2261C386.953 55.7733 405.54 61.5185 401.41 69.2162Z" fill="#1A202C"/>
<path d="M562.424 544.975C577.782 500.365 577.031 502.994 576.768 502.618C576.505 502.243 527.953 501.342 500.992 501.867C490.24 485.747 476.188 472.092 459.766 461.806C443.344 451.52 424.925 444.838 405.728 442.201C402.809 438.999 398.782 437.026 394.463 436.681L389.769 435.066C389.582 431.401 389.582 427.729 389.769 424.064C400.307 420.05 408.915 412.166 413.839 402.022C419.359 389.631 416.617 373.784 413.388 333.493C421.123 335.896 421.311 327.936 416.617 321.703C416.829 320.37 416.762 319.009 416.421 317.704C416.08 316.399 415.472 315.179 414.636 314.12C413.8 313.062 412.753 312.188 411.563 311.554C410.372 310.92 409.063 310.54 407.718 310.438C408.44 309.33 408.857 308.051 408.927 306.73C408.996 305.41 408.716 304.094 408.114 302.917C407.511 301.74 406.609 300.742 405.498 300.025C404.387 299.308 403.106 298.898 401.785 298.835C401.003 297.116 399.702 295.685 398.066 294.742C396.43 293.8 394.54 293.392 392.66 293.578C392.395 292.315 391.797 291.145 390.928 290.191C390.059 289.236 388.951 288.531 387.718 288.148C386.485 287.766 385.173 287.719 383.916 288.013C382.659 288.308 381.504 288.932 380.569 289.823C379.781 288.621 377.828 285.655 376.814 284.528C377.617 283.738 378.169 282.729 378.402 281.628C378.636 280.526 378.541 279.38 378.129 278.332C379.968 277.757 381.576 276.608 382.718 275.055C383.86 273.501 384.475 271.624 384.475 269.696C384.475 267.768 383.86 265.89 382.718 264.337C381.576 262.783 379.968 261.635 378.129 261.059C381.095 250.245 370.957 243.599 361.757 247.917C361.259 246.676 360.405 245.611 359.302 244.856C358.2 244.1 356.898 243.689 355.561 243.674C363.071 234.211 352.369 227.602 342.193 230.832C341.524 229.115 340.4 227.613 338.942 226.487C337.483 225.362 335.746 224.655 333.915 224.442C332.085 224.23 330.232 224.52 328.555 225.282C326.877 226.044 325.439 227.249 324.395 228.766C321.931 228.119 319.311 228.465 317.099 229.729C314.887 230.993 313.26 233.074 312.566 235.525C310.99 235.154 309.35 235.136 307.766 235.474C306.182 235.811 304.692 236.496 303.404 237.478C302.545 235.992 301.174 234.871 299.547 234.323C297.921 233.775 296.151 233.838 294.568 234.501C292.985 235.164 291.697 236.38 290.946 237.923C290.195 239.467 290.032 241.23 290.487 242.885C289.448 243.175 288.526 243.784 287.853 244.626C287.179 245.469 286.787 246.502 286.732 247.579C286.319 247.509 285.896 247.528 285.491 247.634C285.085 247.74 284.707 247.93 284.381 248.193C284.055 248.455 283.788 248.784 283.597 249.157C283.407 249.53 283.298 249.939 283.277 250.358C282.299 250.109 281.27 250.152 280.316 250.481C279.363 250.809 278.525 251.409 277.907 252.206C277.289 253.003 276.917 253.964 276.837 254.97C276.758 255.975 276.973 256.982 277.457 257.868C276.234 258.142 275.119 258.771 274.251 259.676C273.383 260.58 272.8 261.72 272.576 262.954C272.352 264.187 272.495 265.46 272.99 266.612C273.484 267.764 274.306 268.745 275.354 269.433C269.421 271.16 265.591 276.943 267.844 282.2C261.085 286.293 258.307 294.591 263.075 300.374C262.217 302.761 262.254 305.378 263.18 307.74C264.105 310.102 265.856 312.048 268.107 313.216C267.125 314.423 266.501 315.881 266.304 317.425C266.108 318.969 266.348 320.537 266.997 321.951C267.645 323.366 268.677 324.57 269.975 325.429C271.273 326.288 272.785 326.766 274.34 326.809C274.455 328.17 274.919 329.477 275.688 330.605C276.456 331.733 277.503 332.644 278.727 333.248C279.951 333.853 281.311 334.131 282.674 334.055C284.037 333.98 285.357 333.553 286.507 332.817C287.118 333.793 288.003 334.569 289.05 335.048C290.098 335.526 291.263 335.688 292.401 335.512C293.539 335.337 294.601 334.831 295.456 334.059C296.31 333.286 296.919 332.28 297.208 331.165C299.046 331.856 301.019 332.114 302.973 331.919C304.926 331.723 306.809 331.08 308.473 330.039C306.934 339.389 299.837 340.065 302.052 349.865C300.744 351.586 300.02 353.681 299.986 355.842C299.952 358.004 300.611 360.12 301.865 361.881C301.439 362.787 301.198 363.768 301.157 364.768C301.115 365.768 301.274 366.766 301.624 367.703C301.974 368.641 302.508 369.499 303.194 370.227C303.88 370.955 304.705 371.539 305.62 371.944C305.268 372.634 305.102 373.403 305.137 374.177C305.172 374.95 305.408 375.701 305.82 376.356C306.233 377.01 306.808 377.547 307.491 377.912C308.173 378.278 308.939 378.46 309.713 378.441C310.451 381.201 311.868 383.733 313.836 385.806C315.804 387.879 318.259 389.426 320.978 390.306C321.353 437.507 323.08 431.837 318.574 437.319C314.424 439.499 311.023 442.874 308.811 447.007C242.949 469.875 216.363 522.107 207.652 592.213C202.62 591.424 202.395 591.236 202.207 591.875C200.18 599.765 199.469 607.935 200.104 616.057C200.104 616.545 200.104 616.508 206.112 617.972C207.802 646.923 223.46 678.315 254.927 683.835C254.514 689.918 254.026 724.764 254.927 732.65C254.967 732.834 255.069 732.999 255.216 733.118C255.363 733.236 255.546 733.301 255.734 733.301C255.923 733.301 256.106 733.236 256.253 733.118C256.4 732.999 256.502 732.834 256.542 732.65C256.542 728.444 257.067 690.669 257.405 684.398C276.518 686.276 287.708 678.277 302.766 661.868C326.422 635.583 339.828 607.233 353.796 577.493C356.25 572.692 358.224 567.661 359.692 562.473C361.895 563.364 364.324 563.535 366.631 562.962C368.937 562.388 371.004 561.1 372.534 559.281C377.912 561.018 383.626 561.455 389.206 560.558C390.15 560.383 391.047 560.015 391.843 559.478C392.638 558.94 393.314 558.245 393.828 557.434C394.343 556.624 394.685 555.716 394.833 554.767C394.981 553.819 394.931 552.85 394.688 551.922C399.495 551.696 402.499 547.341 397.692 543.698C396.162 542.522 394.543 541.468 392.848 540.544C396.829 540.281 407.343 539.117 410.76 536.789C414.177 534.461 414.064 528.641 409.333 528.002C407.343 527.739 378.091 528.941 371.445 529.88C364.868 530.577 358.64 533.188 353.533 537.39C346.023 543.586 292.928 587.707 273.965 603.628C262.963 601.638 221.733 594.578 210.768 592.851C219.855 517.113 250.722 471.827 307.798 450.499C304.305 464.768 321.203 479.413 326.573 483.768C335.397 491.016 349.816 498.788 362.17 495.409C370.018 493.306 375.876 487.261 379.631 477.385C396.303 491.842 404.151 490.227 406.779 488.875C416.88 483.581 416.467 457.821 408.056 445.43C426.078 448.22 443.33 454.7 458.733 464.462C474.136 474.225 487.359 487.061 497.575 502.168C480.34 502.543 481.391 502.543 481.241 502.994C477.169 513.979 473.213 525.007 469.375 536.076C467.873 526.726 465.62 513.996 464.644 510.316C464.56 510.115 464.407 509.952 464.212 509.855C464.018 509.758 463.795 509.735 463.584 509.79C463.374 509.845 463.19 509.974 463.068 510.154C462.945 510.333 462.891 510.551 462.917 510.767C464.005 515.348 466.258 532.734 467.498 541.52C452.252 585.642 440.311 625.407 440.612 625.82C440.912 626.233 478.162 626.233 482.968 626.158C486.723 657.55 489.577 722.999 489.464 730.772C489.464 730.991 489.551 731.201 489.706 731.356C489.861 731.511 490.071 731.598 490.29 731.598C490.51 731.598 490.72 731.511 490.875 731.356C491.03 731.201 491.117 730.991 491.117 730.772C491.792 716.954 491.117 675.424 490.478 666.449C499.358 664.976 507.496 660.59 513.609 653.983C518.19 649.289 524.874 635.395 529.493 624.205C536.777 623.717 537.003 623.83 537.003 623.342C541.283 613.391 545.526 601.675 549.094 590.26C566.817 587.594 575.792 562.736 568.62 551.471C567.011 548.912 564.904 546.703 562.424 544.975ZM256.279 624.806C258.682 624.393 256.016 621.051 346.662 546.552C361.682 534.273 362.846 533.109 381.058 531.87C387.817 531.419 405.352 530.781 407.343 530.743C408.882 530.743 410.234 530.743 410.121 532.133C410.121 534.536 406.366 535.249 403.775 535.888C396.003 537.769 388.04 538.752 380.044 538.817C379.805 538.817 379.575 538.912 379.406 539.081C379.237 539.25 379.142 539.479 379.142 539.718C379.142 539.957 379.237 540.186 379.406 540.355C379.575 540.524 379.805 540.619 380.044 540.619H387.854C390.248 541.779 392.535 543.149 394.688 544.712C395.589 545.35 397.204 545.951 397.317 546.815C397.917 551.809 385.301 547.19 380.87 545.05C380.715 544.97 380.536 544.955 380.37 545.008C380.205 545.061 380.067 545.177 379.987 545.332C379.908 545.486 379.893 545.666 379.945 545.831C379.998 545.997 380.115 546.134 380.269 546.214C383.461 548.204 394.5 552.072 391.947 555.827C388.68 560.558 380.119 558.53 374.449 557.404C375.633 556.446 377.057 555.831 378.567 555.626C380.076 555.421 381.613 555.633 383.01 556.24C383.201 556.288 383.403 556.266 383.579 556.178C383.755 556.09 383.894 555.943 383.971 555.762C384.048 555.581 384.058 555.378 383.999 555.19C383.94 555.003 383.815 554.842 383.648 554.738C381.342 553.767 378.79 553.538 376.348 554.083C373.905 554.628 371.693 555.92 370.018 557.779C365.549 562.06 359.992 561.046 355.674 556.69C355.519 556.554 355.321 556.477 355.115 556.474C354.909 556.47 354.709 556.541 354.55 556.672C354.392 556.804 354.285 556.987 354.25 557.191C354.215 557.394 354.254 557.602 354.359 557.779C355.223 559.106 356.347 560.243 357.664 561.121C350.974 577.576 343.454 593.68 335.134 609.373C320.114 637.536 304.869 657.437 287.746 671.931C269.196 687.89 241.935 682.032 226.276 663.783C216.889 652.931 210.994 637.723 208.816 618.723C216.626 620.075 247.83 624.543 256.279 624.806ZM321.391 311.564C318.151 313.84 315.646 317.011 314.181 320.689C312.715 319.395 311.582 317.768 310.876 315.945C310.17 314.122 309.913 312.156 310.126 310.212C313.468 295.192 328.901 282.05 341.705 278.182C349.591 274.99 369.642 278.558 376.101 288.208C373.994 288.017 371.891 288.619 370.206 289.898C369.195 288.584 367.901 287.515 366.42 286.771C364.939 286.028 363.309 285.628 361.651 285.603C359.994 285.578 358.353 285.927 356.849 286.625C355.346 287.324 354.02 288.352 352.97 289.635C350.916 290.234 349.061 291.375 347.6 292.939C346.219 292.199 344.65 291.88 343.089 292.02C341.528 292.16 340.042 292.754 338.814 293.728C337.506 294.083 336.356 294.869 335.552 295.96C334.748 297.051 334.336 298.381 334.383 299.736C332.735 299.573 331.07 299.758 329.498 300.279C327.926 300.8 326.481 301.645 325.256 302.76C324.031 303.875 323.054 305.235 322.388 306.752C321.722 308.268 321.383 309.908 321.391 311.564ZM392.398 467.584C374.862 485.759 322.179 464.58 318.762 447.683C318.492 445.867 318.653 444.012 319.234 442.27C319.815 440.528 320.798 438.948 322.104 437.657C322.48 437.281 322.742 436.868 323.118 436.493C323.162 436.385 323.162 436.263 323.118 436.155L323.831 435.254C324.77 433.489 323.606 396.127 323.418 390.757C324.831 390.776 326.214 390.346 327.368 389.53C328.522 388.713 329.387 387.552 329.839 386.213C330.639 386.649 331.55 386.838 332.457 386.757C333.364 386.676 334.226 386.329 334.937 385.759C335.647 385.189 336.173 384.422 336.448 383.554C336.724 382.686 336.737 381.757 336.486 380.881L345.723 370.968C345.71 372.201 346.051 373.412 346.704 374.457C347.357 375.503 348.296 376.339 349.409 376.869C350.523 377.398 351.764 377.597 352.988 377.443C354.211 377.289 355.364 376.788 356.312 376C357.283 375.294 358.085 374.383 358.663 373.332C359.241 372.28 359.579 371.114 359.654 369.917C359.669 369.787 359.638 369.657 359.567 369.548C359.497 369.439 359.391 369.357 359.267 369.317C359.143 369.277 359.009 369.282 358.888 369.329C358.767 369.377 358.666 369.465 358.603 369.579C357.979 370.514 357.055 371.209 355.984 371.55C354.913 371.892 353.757 371.858 352.707 371.456C353.075 369.899 353.002 368.271 352.498 366.753C351.995 365.234 351.079 363.886 349.853 362.857C344.221 344.833 344.747 337.699 354.848 330.94C362.358 325.27 388.643 312.653 406.329 328.762C407.544 330.173 408.992 331.367 410.609 332.292C415.19 394.662 418.119 395.488 400.997 413.587C395.751 418.906 388.767 422.158 381.32 422.75C380.006 422.75 379.856 424.665 381.32 424.815C383.226 425.077 385.159 425.077 387.066 424.815C387.066 437.544 386.502 436.568 390.145 437.845C402.574 443.59 401.485 458.084 392.398 467.584ZM502.832 658.413C498.888 660.601 494.67 662.256 490.29 663.332C489.727 657.024 487.437 637.047 485.935 625.782C499.603 625.482 513.346 624.919 526.451 624.093C520.969 637.761 512.67 653.607 502.832 658.413ZM527.653 534.498C519.392 534.273 519.392 524.059 527.653 523.834C535.914 523.609 535.914 534.461 527.653 534.686V534.498ZM494.196 515.16C492.443 516.207 491.023 517.731 490.103 519.553C488.976 521.694 456.721 609.448 455.181 614.442C455.102 614.711 454.918 614.937 454.672 615.071C454.425 615.205 454.136 615.235 453.867 615.156C453.598 615.076 453.372 614.893 453.238 614.646C453.104 614.4 453.074 614.11 453.154 613.842C455.069 606.745 482.893 527.064 483.193 526.575C489.84 509.978 492.431 510.241 505.123 509.828C510.943 509.64 553.299 509.453 559.42 510.466C560.772 510.692 560.471 512.607 559.42 512.719C556.078 513.132 496.824 514.034 494.196 515.348V515.16ZM550.22 586.505C551.647 581.699 552.961 577.005 553.975 572.537C555.647 573.212 557.383 573.716 559.157 574.039C559.351 574.083 559.555 574.049 559.724 573.944C559.893 573.838 560.014 573.67 560.058 573.475C560.103 573.281 560.069 573.077 559.963 572.908C559.858 572.739 559.689 572.619 559.495 572.574C555.402 570.973 551.597 568.716 548.23 565.89C545.94 563.299 544.888 561.384 547.554 559.507C552.661 563.525 559.307 567.017 561.748 568.782C561.903 568.858 562.081 568.879 562.249 568.84C562.418 568.801 562.569 568.705 562.675 568.568C562.781 568.431 562.836 568.262 562.832 568.088C562.827 567.915 562.763 567.749 562.649 567.618C559.908 565.139 550.633 558.906 545.789 554.062C545.713 553.296 545.873 552.525 546.249 551.853C546.626 551.182 547.199 550.642 547.892 550.307C552.249 554.107 557.009 557.418 562.086 560.183C562.252 560.283 562.449 560.315 562.638 560.274C562.827 560.232 562.993 560.118 563.1 559.957C563.663 559.244 563.1 558.981 559.345 555.864C556.529 553.536 552.586 550.269 549.695 547.416C545.602 543.661 553.45 544.336 560.622 547.416C563.119 548.842 565.154 550.956 566.485 553.505C567.817 556.055 568.388 558.933 568.132 561.797C567.568 572.649 560.884 583.914 550.22 586.881V586.505ZM242.498 45.7476C240.99 45.9676 239.452 45.6627 238.142 44.8839C237.277 42.6843 235.812 40.7719 233.914 39.3644C232.015 37.957 229.759 37.1112 227.403 36.9233C221.658 37.2988 220.531 45.4096 216.138 46.0104C213.509 46.3859 210.28 43.6823 206.525 38.0498C206.479 37.9546 206.407 37.8743 206.317 37.8181C206.228 37.7619 206.124 37.7321 206.018 37.7321C205.912 37.7321 205.809 37.7619 205.719 37.8181C205.629 37.8743 205.557 37.9546 205.511 38.0498C205.097 39.4593 204.973 40.9383 205.148 42.397C205.322 43.8557 205.791 45.2639 206.525 46.5361C205.917 46.5081 205.341 46.2536 204.911 45.8227C203.634 44.5835 202.995 49.1646 206.075 52.3188C205.129 52.2685 204.207 52.0121 203.371 51.5678C201.493 50.1034 202.282 57.8387 208.44 61.3684C206.698 61.2582 204.997 60.7993 203.436 60.0188C201.875 59.2383 200.486 58.1521 199.353 56.8248C199.279 56.7224 199.173 56.6478 199.052 56.6129C198.93 56.5781 198.801 56.585 198.684 56.6327C198.567 56.6803 198.469 56.7659 198.407 56.8757C198.344 56.9854 198.321 57.113 198.339 57.2379C199.007 62.8087 201.582 67.9769 205.627 71.8648C209.672 75.7526 214.938 78.1205 220.531 78.5663C232.96 78.5663 240.808 65.1985 237.917 54.9473C238.65 54.7167 239.437 54.7167 240.17 54.9473C240.278 55.0287 240.413 55.0682 240.548 55.0586C240.683 55.049 240.81 54.9909 240.906 54.895C241.002 54.7991 241.06 54.6719 241.07 54.5367C241.079 54.4014 241.04 54.2673 240.958 54.1588C240.575 53.5463 240.318 52.8627 240.205 52.1488C240.091 51.4349 240.123 50.7054 240.299 50.0041C240.474 49.3029 240.789 48.6442 241.225 48.0676C241.661 47.4911 242.209 47.0085 242.836 46.6488C242.896 46.5727 242.935 46.4826 242.95 46.387C242.964 46.2915 242.954 46.1937 242.92 46.1032C242.886 46.0126 242.83 45.9324 242.756 45.8701C242.682 45.8078 242.593 45.7656 242.498 45.7476ZM230.933 48.6389C230.189 48.5559 229.502 48.2017 229.003 47.6441C228.504 47.0864 228.229 46.3644 228.229 45.6162C228.229 44.8679 228.504 44.1459 229.003 43.5883C229.502 43.0306 230.189 42.6764 230.933 42.5934C231.676 42.6764 232.363 43.0306 232.862 43.5883C233.361 44.1459 233.637 44.8679 233.637 45.6162C233.637 46.3644 233.361 47.0864 232.862 47.6441C232.363 48.2017 231.676 48.5559 230.933 48.6389ZM129.811 423.05C117.576 422.367 105.304 422.984 93.1993 424.89C93.0732 424.908 92.9581 424.971 92.8752 425.068C92.7923 425.165 92.7474 425.288 92.7487 425.416C92.7179 431.953 93.6027 438.462 95.3772 444.754C95.4133 444.857 95.4787 444.948 95.5654 445.014C95.6521 445.081 95.7563 445.121 95.8653 445.129C106.731 445.992 117.657 445.69 128.459 444.228C130.599 443.928 132.139 423.2 129.811 423.05ZM119.71 435.329C119.461 436.553 118.857 437.676 117.974 438.558C117.09 439.44 115.966 440.042 114.742 440.288C113.518 440.534 112.248 440.414 111.092 439.942C109.936 439.47 108.945 438.667 108.243 437.635C107.541 436.602 107.159 435.386 107.145 434.137C107.131 432.889 107.486 431.664 108.165 430.616C108.844 429.568 109.817 428.744 110.962 428.246C112.107 427.749 113.373 427.6 114.603 427.819C115.436 427.967 116.231 428.281 116.941 428.741C117.651 429.201 118.262 429.798 118.738 430.498C119.214 431.198 119.545 431.986 119.712 432.815C119.879 433.645 119.878 434.5 119.71 435.329ZM121.887 418.732C122.543 418.853 123.217 418.843 123.869 418.704C124.521 418.564 125.139 418.298 125.688 417.92C126.237 417.541 126.707 417.058 127.069 416.499C127.432 415.939 127.681 415.313 127.802 414.658C127.922 414.002 127.913 413.329 127.773 412.676C127.634 412.024 127.368 411.406 126.989 410.857C126.611 410.308 126.128 409.838 125.569 409.476C125.009 409.113 124.383 408.864 123.727 408.743C122.403 408.499 121.036 408.792 119.927 409.556C118.817 410.32 118.057 411.493 117.813 412.818C117.569 414.142 117.861 415.509 118.626 416.618C119.39 417.728 120.563 418.488 121.887 418.732Z" fill="#28007C"/>
<path d="M141.714 406.341C122.939 379.154 80.2071 388.767 75.0252 420.722C73.9763 426.075 74.1441 431.594 75.5161 436.873C76.8882 442.152 79.4294 447.054 82.9518 451.219C86.4742 455.383 90.8877 458.702 95.8658 460.93C100.844 463.159 106.259 464.239 111.712 464.092C142.953 464.092 157.71 429.622 141.714 406.341ZM133.829 447.646C133.806 447.753 133.75 447.85 133.669 447.924C133.589 447.998 133.487 448.045 133.378 448.059C119.427 449.93 105.317 450.32 91.2844 449.223C91.1724 449.207 91.0671 449.16 90.9808 449.086C90.8944 449.013 90.8304 448.917 90.7962 448.81C87.0665 434.991 86.3747 420.528 88.7685 406.416C88.7856 406.296 88.8435 406.186 88.9324 406.103C89.0213 406.021 89.1359 405.972 89.2567 405.965C104.363 404.231 119.627 404.395 134.692 406.453C134.804 406.474 134.907 406.528 134.987 406.609C135.068 406.689 135.122 406.792 135.143 406.904C137.495 420.444 137.048 434.322 133.829 447.683V447.646Z" fill="#FFC48D"/>
</svg>
