<svg width="800" height="800" viewBox="0 0 800 800" fill="none" xmlns="http://www.w3.org/2000/svg">
<path fill-rule="evenodd" clip-rule="evenodd" d="M349.36 341.841C348.8 342.921 347.16 353.841 353.6 353.841C354.725 353.843 355.814 353.44 356.666 352.705C357.518 351.971 358.077 350.954 358.24 349.841C359.6 337.601 351.6 337.641 349.36 341.841ZM407.36 341.681C407.72 345.921 408.2 349.681 412.44 349.681C413.565 349.683 414.654 349.28 415.506 348.545C416.358 347.811 416.917 346.794 417.08 345.681C417.167 343.107 416.884 340.534 416.24 338.041C413.92 333.761 406.76 334.801 407.36 341.681ZM379.36 380.321C380.6 380.321 391.36 379.801 393.88 377.841C394.64 377.281 394.56 376.201 394.56 375.201C394.321 363.854 393.224 352.542 391.28 341.361C391.28 340.761 390.76 340.641 390.44 340.721C390.12 340.801 389.96 341.361 390 342.321C390 345.601 389.72 346.721 390.88 365.081C391.64 377.081 391.32 373.721 391.56 375.721C387.809 377.095 383.958 378.178 380.04 378.961C377.44 379.521 379.28 380.321 379.36 380.321ZM392 408.001C389.033 409.592 385.76 410.533 382.4 410.761C382.231 410.761 382.068 410.828 381.948 410.948C381.828 411.068 381.76 411.231 381.76 411.401C381.76 411.57 381.828 411.733 381.948 411.853C382.068 411.973 382.231 412.041 382.4 412.041C384.28 412.717 386.287 412.96 388.273 412.752C390.26 412.545 392.174 411.892 393.873 410.843C395.572 409.793 397.012 408.374 398.087 406.691C399.162 405.008 399.843 403.104 400.08 401.121C400.101 401.039 400.106 400.955 400.094 400.871C400.083 400.788 400.055 400.708 400.012 400.635C399.969 400.563 399.913 400.5 399.845 400.449C399.778 400.399 399.702 400.362 399.62 400.341C399.539 400.32 399.454 400.315 399.371 400.327C399.288 400.338 399.208 400.366 399.135 400.409C399.063 400.452 398.999 400.508 398.949 400.576C398.898 400.643 398.861 400.719 398.84 400.801C397.221 403.751 394.864 406.232 392 408.001ZM212.72 99.5207C223 133.881 259.36 132.201 263.6 134.761C263.6 135.161 271.92 167.201 275.28 171.601C277.16 174.041 281.68 173.081 284.68 172.521C291.72 171.121 299.88 170.681 305.84 165.921C307.36 164.681 306.48 159.641 306.08 157.921C304.807 150.728 303.043 143.632 300.8 136.681C299.918 134.584 299.17 132.433 298.56 130.241C301.321 127.795 304.323 125.638 307.52 123.801C312.798 120.205 317.493 115.821 321.44 110.801C329.078 99.6117 332.531 86.09 331.192 72.609C329.853 59.128 323.809 46.5493 314.12 37.0807C284.48 8.00072 230.88 17.4807 213.48 54.1607C207.52 66.8807 208.68 86.1607 212.72 99.5207ZM304 164.001C298.68 168.281 290.84 168.841 284 170.241C282.16 170.641 277.8 171.721 276.64 170.241C274.377 166.974 272.749 163.31 271.84 159.441C282.202 157.981 292.336 155.212 302 151.201C303.308 155.342 303.982 159.658 304 164.001ZM301.56 149.561C291.34 151.466 281.302 154.249 271.56 157.881C270.527 153.238 269.191 148.668 267.56 144.201C277.895 143.118 288.03 140.615 297.68 136.761C299.294 140.989 300.63 145.318 301.68 149.721L301.56 149.561ZM216 55.4007C232.76 20.7607 284 12.0007 312 39.4007C321.101 48.3271 326.794 60.1544 328.094 72.8355C329.395 85.5167 326.22 98.2533 319.12 108.841C312.2 118.601 298.2 125.321 296.04 128.841C295.28 130.081 296.68 133.241 297.56 135.481C293 136.361 288 137.441 283.52 138.441C282.32 132.961 276.72 110.841 274.64 105.641C273.84 103.561 273.12 103.721 271 104.321C259.32 104.321 246.48 101.361 242.36 90.3607C241.863 89.0713 241.514 87.7293 241.32 86.3607C240.76 80.6007 245.32 73.8807 250.36 74.3607C249.64 78.7607 250.36 87.1607 254.12 89.6807C257.88 92.2007 262.12 88.2007 262.12 84.6007C261.907 82.0047 261.063 79.5 259.662 77.3042C258.261 75.1084 256.345 73.2878 254.08 72.0007C254.709 70.5727 255.641 69.2986 256.811 68.2666C257.982 67.2346 259.362 66.4695 260.858 66.0243C262.353 65.5791 263.928 65.4644 265.472 65.6883C267.016 65.9121 268.493 66.4692 269.8 67.3207C266.64 73.4807 269.8 87.6007 275.4 84.2807C281 80.9607 279.16 72.8007 275.68 68.2807C274 66.0807 273.64 66.6807 274.48 66.0407C281 61.2807 288.4 66.8007 291.52 74.0407C296 84.0007 286.4 96.2807 280.32 100.001C280.172 100.091 280.065 100.236 280.024 100.405C279.983 100.574 280.01 100.752 280.1 100.901C280.191 101.049 280.336 101.156 280.505 101.197C280.674 101.238 280.852 101.211 281 101.121C288.44 96.7607 297.84 83.9207 293.56 73.1207C289.28 62.3207 278.52 58.1607 271.72 64.6007C270.008 63.4259 268.054 62.6502 266.002 62.3308C263.951 62.0115 261.853 62.1565 259.865 62.7553C257.877 63.3541 256.048 64.3914 254.514 65.7907C252.98 67.19 251.779 68.9157 251 70.8407C243.56 69.8807 237.28 78.5607 238.12 86.4407C238.572 89.9236 239.889 93.2379 241.95 96.0815C244.011 98.9251 246.751 101.208 249.92 102.721C253.68 104.521 267.04 107.801 272.32 106.281C274.16 110.281 280.84 133.761 282.04 138.681C264.28 142.681 267.88 144.561 267 141.961C265.96 138.721 265.32 133.961 264.44 133.641C242.36 128.641 222.44 124.961 215 98.7607C211.36 86.0807 210.4 67.2807 216 55.4007ZM253.12 75.1607C254.636 76.2362 255.903 77.6251 256.834 79.2331C257.766 80.8412 258.341 82.6309 258.52 84.4807C258.52 85.5607 256.08 88.4807 254.52 85.2807C253.326 82.0496 252.902 78.5846 253.28 75.1607H253.12ZM272 69.0407C275.2 72.1607 277.2 79.4407 273.72 81.5607C272.514 79.736 271.733 77.6635 271.436 75.4965C271.138 73.3294 271.331 71.1232 272 69.0407ZM152 221.721C168.28 216.641 188 221.041 195.6 239.041C208.76 269.521 173.96 285.041 174.32 286.641C175.12 290.641 176.56 297.641 177.16 301.681C177.208 302.02 177.389 302.327 177.663 302.533C177.936 302.739 178.281 302.828 178.62 302.781C178.96 302.733 179.266 302.552 179.473 302.279C179.679 302.005 179.768 301.66 179.72 301.321C179.24 297.321 178.72 291.561 178.16 287.401C183.816 285.132 189.049 281.927 193.64 277.921C221.88 244.601 190.36 202.561 150.08 215.721C143.702 217.581 138.061 221.379 133.94 226.59C129.818 231.801 127.421 238.166 127.08 244.801C125.8 260.561 138.36 274.161 158.64 272.401C158.946 272.347 159.223 272.187 159.423 271.949C159.622 271.712 159.731 271.411 159.731 271.101C159.731 270.79 159.622 270.49 159.423 270.252C159.223 270.014 158.946 269.855 158.64 269.801C140.64 270.721 131 257.801 132.72 245.401C133.119 239.953 135.182 234.76 138.631 230.524C142.079 226.288 146.747 223.215 152 221.721ZM450.76 117.361C451.1 117.451 451.461 117.403 451.765 117.226C452.069 117.05 452.29 116.76 452.38 116.421C452.471 116.081 452.422 115.72 452.246 115.416C452.07 115.112 451.78 114.891 451.44 114.801C434.12 109.921 429.12 94.6007 434.72 83.3607C436.901 78.3407 440.574 74.1129 445.239 71.2507C449.904 68.3886 455.337 67.0305 460.8 67.3607C490.88 68.1207 504.08 95.8007 492.8 115.561C485.32 129.081 475.32 132.721 462.52 134.401C462.116 134.458 461.741 134.644 461.453 134.933C461.164 135.222 460.977 135.596 460.92 136.001C460.48 139.681 459.52 146.921 458.8 151.121C458.731 151.455 458.798 151.803 458.986 152.088C459.173 152.373 459.466 152.572 459.8 152.641C460.135 152.71 460.482 152.643 460.767 152.456C461.053 152.268 461.251 151.975 461.32 151.641C462.24 147.321 463.48 142.241 464.32 137.961C470.397 137.634 476.375 136.281 482 133.961C495.56 125.961 503.8 113.321 502.72 97.3207C500.2 59.7607 445.4 46.3207 429.64 81.3207C423.52 95.5607 430.96 112.881 450.76 117.361ZM673 305.041C672.542 297.626 669.897 290.514 665.4 284.601C661.074 279.733 655.798 275.803 649.895 273.051C643.993 270.299 637.59 268.785 631.08 268.601C624.454 268.294 617.896 270.053 612.314 273.636C606.732 277.219 602.401 282.449 599.92 288.601C593.64 303.121 601.2 320.041 620.92 324.841C621.096 324.92 621.287 324.96 621.48 324.957C621.672 324.954 621.862 324.91 622.036 324.826C622.209 324.742 622.363 324.621 622.484 324.472C622.606 324.323 622.694 324.149 622.742 323.962C622.789 323.775 622.795 323.58 622.759 323.391C622.723 323.202 622.646 323.022 622.534 322.866C622.421 322.71 622.276 322.58 622.107 322.486C621.939 322.391 621.753 322.335 621.56 322.321C604.36 317.121 599.24 302.321 604.88 290.881C607.061 285.861 610.734 281.633 615.399 278.771C620.064 275.909 625.497 274.55 630.96 274.881C636.508 275.035 641.966 276.312 647.006 278.636C652.045 280.96 656.561 284.282 660.28 288.401C664.027 293.291 666.253 299.175 666.68 305.321C669.52 340.601 631.52 340.721 631.16 343.521C630.68 347.521 629.8 354.561 629.04 358.641C628.971 358.975 629.038 359.323 629.226 359.608C629.413 359.893 629.706 360.092 630.04 360.161C630.375 360.23 630.722 360.163 631.007 359.976C631.293 359.788 631.491 359.495 631.56 359.161C632.52 354.881 633.72 349.761 634.56 345.481C640.648 345.139 646.636 343.787 652.28 341.481C665.64 333.641 674.08 321.201 673 305.041ZM194.96 332.001C196.68 324.881 191.52 317.401 186.4 318.001C183.08 317.642 179.736 317.548 176.4 317.721C167.72 319.801 163.64 331.161 171.8 336.721C181.16 342.961 193.28 338.641 194.96 332.001ZM188.76 331.201C187.34 332.386 185.6 333.124 183.76 333.321C172.88 334.841 170.56 325.321 177.88 322.201L186.48 320.601C190.2 320.921 191.04 328.881 188.76 331.001V331.201ZM455.48 166.401C446.16 163.001 436.08 173.521 442.68 182.401C449.28 191.281 462.36 191.281 466.12 185.361C469.88 179.441 467.6 170.481 462.56 169.361C462.12 169.161 458.64 167.561 455.48 166.401ZM460.52 182.401C458.731 183.01 456.815 183.146 454.957 182.795C453.1 182.445 451.365 181.62 449.92 180.401C448.739 179.552 447.767 178.444 447.08 177.161C445.92 173.921 450.08 170.601 453.12 170.401L461.76 171.641C465.12 173.441 463.44 181.281 460.52 182.521V182.401ZM632.68 377.121C631.88 376.761 627.76 375.041 625.64 374.241C616.28 370.841 606.24 381.361 612.84 390.241C619.44 399.121 632.48 399.121 636.28 393.201C640.08 387.281 637.76 378.241 632.68 377.121ZM630.64 390.361C628.851 390.966 626.935 391.1 625.078 390.749C623.222 390.399 621.487 389.576 620.04 388.361C618.869 387.485 617.9 386.366 617.2 385.081C616.08 381.881 620.2 378.561 623.24 378.361L631.88 379.601C635.24 381.281 633.56 389.081 630.64 390.361Z" fill="#28007C"/>
<path fill-rule="evenodd" clip-rule="evenodd" d="M600.001 597.761C592.001 558.401 560.881 497.761 523.521 482.281L516.001 466.561C515.947 466.447 515.869 466.346 515.773 466.264C515.677 466.183 515.564 466.123 515.443 466.089C515.321 466.055 515.194 466.047 515.07 466.066C514.945 466.086 514.826 466.132 514.721 466.201L506.721 471.361C504.18 454.382 496.421 438.614 484.521 426.241C492.841 413.401 506.161 409.481 519.921 408.881C531.321 408.401 539.721 407.721 546.321 397.961C559.401 378.681 556.321 359.881 540.961 341.961C517.561 314.681 508.361 322.841 496.961 307.761C475.281 279.441 470.361 237.561 438.441 215.761C397.641 188.121 375.641 210.401 367.081 217.281C354.561 209.681 326.641 212.321 314.641 222.601C304.441 231.321 290.921 242.601 285.681 255.201C274.521 281.801 275.721 313.281 259.401 337.401C255.401 343.401 248.561 347.441 243.721 353.121C237.077 361.451 231.426 370.525 226.881 380.161C220.961 391.361 216.441 403.801 221.841 415.401C229.081 430.921 245.281 445.721 262.561 444.601C272.561 443.921 285.801 437.921 295.201 441.881C300.801 444.201 302.961 449.601 307.201 454.121C316.801 464.801 339.201 468.041 351.601 460.641C337.961 478.001 317.161 477.401 280.881 497.401C225.201 528.041 204.881 562.841 198.921 598.481C196.641 609.569 194.958 620.772 193.881 632.041C190.441 690.161 208.081 763.841 265.281 776.041C280.961 779.401 298.921 781.561 314.441 777.681C343.841 770.361 378.921 750.561 404.681 734.481C416.681 727.001 461.081 697.041 481.721 693.121C482.963 703.796 485.654 714.253 489.721 724.201C506.241 758.161 532.681 778.241 569.721 769.521C593.721 763.881 600.561 738.321 601.201 713.841C613.241 688.001 603.681 616.561 600.001 597.761ZM461.601 410.481C468.721 411.801 473.601 418.481 478.881 423.921C492.841 437.881 502.441 452.841 505.321 471.921C493.761 479.281 486.241 483.921 486.081 484.161C485.921 484.401 480.361 470.241 477.001 468.521C471.974 466.025 467.414 462.683 463.521 458.641C460.521 455.321 456.841 449.481 457.321 445.081C459.447 443.95 461.768 443.231 464.161 442.961V440.481C451.801 440.841 447.561 452.121 446.441 454.641C445.641 456.441 444.521 458.241 441.961 457.961C439.401 457.681 438.481 454.721 439.441 452.081C440.401 449.441 442.721 437.841 459.081 435.321C459.286 435.292 459.483 435.223 459.661 435.118C459.839 435.013 459.995 434.874 460.119 434.709C460.244 434.543 460.334 434.355 460.386 434.155C460.438 433.954 460.45 433.746 460.421 433.541C460.392 433.336 460.323 433.139 460.218 432.961C460.113 432.783 459.974 432.627 459.808 432.502C459.643 432.378 459.455 432.287 459.254 432.236C459.054 432.184 458.846 432.172 458.641 432.201C455.217 432.636 451.898 433.679 448.841 435.281C446.092 436.623 443.653 438.521 441.677 440.855C439.7 443.19 438.231 445.909 437.361 448.841C435.441 454.321 428.721 451.881 430.321 447.161C431.931 442.569 434.326 438.292 437.401 434.521C440.815 431.267 444.915 428.82 449.401 427.361C452.921 425.921 455.921 426.601 456.721 425.441C457.521 424.281 455.641 420.401 454.681 419.241C449.521 413.081 434.681 418.401 429.001 411.521C425.361 407.001 433.001 406.841 436.081 406.441C444.721 405.481 452.921 408.841 461.601 410.481ZM476.281 509.601C464.846 513.328 453.182 516.307 441.361 518.521C445.361 495.761 448.081 476.241 447.681 469.161C457.001 470.961 467.681 472.241 479.361 474.161C482.521 479.401 484.241 483.801 485.001 485.041L477.241 489.961C476.841 490.481 476.921 488.321 476.281 509.601ZM432.841 625.161C434.612 632.842 435.868 640.633 436.601 648.481C420.201 647.441 407.681 647.641 401.521 647.401C401.761 636.161 401.881 632.681 402.081 630.321C412.176 627.763 422.463 626.037 432.841 625.161ZM369.921 526.641C392.613 526.803 415.274 524.955 437.641 521.121C430.521 559.521 419.681 605.681 414.561 614.921C402.801 582.841 404.001 582.721 369.921 526.641ZM417.921 614.401C424.401 599.881 434.241 556.561 440.801 520.481C452.74 518.243 464.514 515.196 476.041 511.361C474.801 554.561 474.441 608.481 477.041 651.801C469.441 651.121 458.401 650.161 447.681 649.321C447.001 642.841 444.321 620.281 442.041 614.361C441.441 612.761 440.721 612.121 438.041 612.041C431.351 612.334 424.693 613.123 418.121 614.401H417.921ZM432.201 461.801C428.15 459.433 424.913 455.89 422.921 451.641C424.772 452.422 426.704 452.999 428.681 453.361C429.431 454.205 430.398 454.827 431.477 455.159C432.557 455.49 433.706 455.519 434.801 455.241C436.601 454.681 435.441 454.441 436.401 456.961C436.769 457.976 437.39 458.881 438.205 459.589C439.02 460.298 440.002 460.788 441.059 461.012C442.116 461.236 443.212 461.187 444.244 460.87C445.277 460.554 446.212 459.979 446.961 459.201C448.521 457.801 448.641 456.121 450.521 452.521C452.361 452.161 454.161 451.681 455.921 451.161C460.681 463.641 475.601 469.681 476.641 470.601C459.081 468.001 443.521 466.361 432.401 461.801H432.201ZM355.521 457.001C365.121 445.881 363.161 437.921 353.281 430.041C333.281 414.361 335.761 418.561 327.361 401.041C317.481 372.601 326.001 327.801 333.321 298.641C335.321 290.641 348.961 282.081 358.881 283.361C372.641 285.121 366.881 292.361 378.641 296.481C380.682 297.078 382.794 297.401 384.921 297.441C385.047 297.48 385.179 297.495 385.311 297.483C385.442 297.471 385.57 297.433 385.687 297.372C385.804 297.311 385.908 297.227 385.993 297.126C386.077 297.024 386.141 296.907 386.181 296.781C386.22 296.655 386.234 296.522 386.222 296.391C386.211 296.259 386.173 296.131 386.112 296.014C386.05 295.897 385.967 295.794 385.865 295.709C385.764 295.624 385.647 295.56 385.521 295.521C379.282 291.779 373.532 287.278 368.401 282.121C370.841 272.161 377.041 266.721 388.681 266.641C396.681 266.641 403.001 272.721 408.681 277.921C415.561 284.201 422.961 301.161 422.401 310.481C421.135 321.28 423.667 332.184 429.561 341.321C433.561 348.281 441.081 354.321 445.561 360.201C448.041 363.481 446.601 378.121 445.161 384.561C443.281 390.201 439.281 400.961 438.361 403.401C421.641 404.001 422.361 412.961 430.361 416.801C422.881 425.761 404.601 435.721 417.681 448.281C420.481 454.161 424.961 462.201 430.961 464.641C435.218 466.367 439.623 467.705 444.121 468.641C445.001 474.841 442.121 495.361 437.721 519.241C414.764 523.06 391.511 524.814 368.241 524.481C353.801 500.841 339.441 478.441 335.801 474.841C343.882 470.733 350.749 464.583 355.721 457.001H355.521ZM328.241 478.081C336.241 475.081 332.241 475.601 334.161 477.081C336.081 478.561 349.281 499.481 364.601 524.321C346.441 524.041 326.001 522.681 318.281 521.801C320.601 519.961 314.601 488.361 312.281 484.361C318.081 482.041 323.441 480.001 328.441 478.081H328.241ZM309.321 485.601C312.61 497.379 314.845 509.427 316.001 521.601C298.741 519.127 281.81 514.74 265.521 508.521C279.479 499.592 294.204 491.922 309.521 485.601H309.321ZM312.961 774.801C297.961 778.561 280.401 776.361 265.281 773.121C241.641 768.041 225.281 752.241 214.641 732.001C197.721 700.001 192.681 652.441 197.841 619.121C198.881 612.441 200.201 605.841 201.321 599.121C207.681 561.001 230.841 532.281 263.161 510.561C294.881 522.201 316.201 526.281 366.041 526.561C400.561 582.561 401.321 588.161 411.201 615.561C408.161 616.121 394.081 618.961 391.681 620.921C390.721 621.681 390.721 623.201 391.681 647.241C355.281 647.961 319.681 653.641 286.201 675.241C282.201 646.401 286.801 637.681 296.121 621.161C310.761 595.201 308.121 590.401 298.881 575.641C297.358 573.648 296.268 571.359 295.681 568.921C295.681 567.961 291.681 566.641 297.321 576.561C305.321 591.121 307.481 594.561 293.321 619.561C282.961 637.881 278.721 647.281 284.961 676.081C282.161 677.961 278.961 680.081 275.881 682.561C271.175 685.874 266.759 689.581 262.681 693.641C262.601 693.795 262.586 693.974 262.638 694.139C262.691 694.304 262.807 694.441 262.961 694.521C263.115 694.601 263.294 694.616 263.459 694.563C263.624 694.511 263.761 694.395 263.841 694.241C265.081 692.041 285.761 678.241 291.321 675.401C322.361 659.761 356.681 646.241 412.881 649.961C412.173 673.741 414.634 697.51 420.201 720.641C391.321 738.881 350.281 765.521 313.161 774.801H312.961ZM422.681 719.041C417.542 696.483 415.271 673.367 415.921 650.241C476.641 654.241 457.601 652.961 477.201 654.241C477.921 665.921 479.001 678.601 480.601 690.241C464.921 693.161 436.721 710.361 422.881 719.041H422.681ZM568.041 766.641C532.721 775.001 507.641 755.721 491.721 723.081C474.121 687.081 477.041 530.721 478.041 490.881L514.601 468.241C563.961 574.841 569.881 584.921 580.961 620.241C595.281 665.241 614.161 756.001 568.241 766.641H568.041ZM600.281 705.441C599.354 684.022 596.054 662.772 590.441 642.081C577.761 592.761 564.041 568.041 526.081 488.241L527.201 487.641C560.721 505.561 589.121 561.201 596.561 598.361C600.641 617.761 608.441 681.201 600.481 705.441H600.281Z" fill="#28007C"/>
</svg>
