<svg width="1024" height="1024" viewBox="0 0 1024 1024" fill="none" xmlns="http://www.w3.org/2000/svg">
<g clip-path="url(#clip0_396_281)">
<circle cx="512" cy="512" r="512" fill="#28007C"/>
<path d="M441.331 360.643L532.15 269.824C546.691 255.087 564.004 243.371 583.091 235.353C602.179 227.334 622.664 223.17 643.367 223.1C664.07 223.031 684.582 227.058 703.723 234.948C722.864 242.839 740.254 254.438 754.894 269.078C769.533 283.717 781.132 301.108 789.023 320.248C796.914 339.389 800.94 359.901 800.871 380.605C800.802 401.308 796.638 421.793 788.619 440.88C780.6 459.967 768.885 477.28 754.148 491.821L723.893 522.075C719.946 526.166 715.223 529.43 710.001 531.676C704.779 533.922 699.162 535.106 693.477 535.158C687.793 535.21 682.154 534.129 676.892 531.979C671.63 529.829 666.848 526.652 662.826 522.634C658.805 518.617 655.623 513.838 653.468 508.578C651.313 503.317 650.227 497.68 650.274 491.995C650.321 486.311 651.499 480.692 653.74 475.468C655.982 470.244 659.241 465.518 663.328 461.567L693.611 431.256C706.894 417.852 714.326 399.733 714.282 380.863C714.238 361.993 706.721 343.908 693.376 330.567C680.031 317.226 661.944 309.714 643.074 309.675C624.204 309.636 606.087 317.074 592.687 330.361L501.868 421.18C492.047 430.997 485.304 443.465 482.465 457.057C479.626 470.649 480.814 484.774 485.884 497.701C487.711 502.324 489.595 506.606 491.479 510.658L497.672 523.902C505.664 541.598 509.089 555.212 491.793 572.537C466.904 597.425 443.928 590.975 423.007 560.635C402.221 530.408 392.674 493.858 396.021 457.327C399.368 420.796 415.398 386.59 441.331 360.643ZM269.795 532.179L300.05 501.925C308.12 494.122 318.933 489.802 330.158 489.894C341.384 489.986 352.124 494.484 360.065 502.418C368.007 510.352 372.515 521.088 372.617 532.313C372.72 543.538 368.41 554.355 360.615 562.433L330.361 592.716C323.544 599.296 318.106 607.168 314.364 615.873C310.622 624.577 308.651 633.939 308.566 643.414C308.481 652.888 310.283 662.285 313.869 671.055C317.454 679.825 322.75 687.793 329.448 694.495C336.145 701.196 344.111 706.497 352.879 710.087C361.647 713.677 371.042 715.485 380.517 715.406C389.991 715.326 399.355 713.36 408.061 709.623C416.768 705.886 424.643 700.452 431.227 693.639L522.047 602.82C531.867 593.003 538.61 580.535 541.449 566.943C544.288 553.351 543.1 539.226 538.03 526.299C536.203 521.676 534.32 517.394 532.436 513.341L526.242 500.098C518.251 482.402 514.826 468.759 532.122 451.463C557.01 426.575 579.986 433.025 600.907 463.365C621.693 493.592 631.241 530.142 627.894 566.673C624.547 603.204 608.516 637.41 582.584 663.356L491.764 754.176C477.223 768.913 459.91 780.629 440.823 788.647C421.736 796.666 401.251 800.83 380.548 800.9C359.844 800.969 339.332 796.942 320.191 789.051C301.051 781.161 283.66 769.562 269.021 754.922C254.381 740.283 242.782 722.892 234.891 703.752C227.001 684.611 222.974 664.098 223.043 643.395C223.113 622.692 227.277 602.207 235.296 583.12C243.314 564.033 255.058 546.72 269.795 532.179Z" fill="white"/>
</g>
<defs>
<clipPath id="clip0_396_281">
<rect width="1024" height="1024" fill="white"/>
</clipPath>
</defs>
</svg>
